<?xml version="1.0" encoding="UTF-8" standalone="no"?>
<!DOCTYPE svg PUBLIC "-//W3C//DTD SVG 1.1//EN" "http://www.w3.org/Graphics/SVG/1.1/DTD/svg11.dtd">
<svg width="100%" height="100%" viewBox="0 0 519 359" version="1.1" xmlns="http://www.w3.org/2000/svg" xmlns:xlink="http://www.w3.org/1999/xlink" xml:space="preserve" xmlns:serif="http://www.serif.com/" style="fill-rule:evenodd;clip-rule:evenodd;stroke-linecap:round;stroke-linejoin:round;stroke-miterlimit:1.5;">
    <g id="Prancheta1" transform="matrix(0.740782,0,0,0.860902,-45.2254,-75.9867)">
        <rect x="61.051" y="88.264" width="700.128" height="416.165" style="fill:none;"/>
        <g id="Menine" transform="matrix(-1.34992,0,0,1.16157,819.505,-48.4834)">
            <g id="Cabelo" transform="matrix(0.43287,-0.901456,0.901456,0.43287,101.979,677.946)">
                <g transform="matrix(-1,0,0,1,729.237,0)">
                    <path d="M284.941,213.939C284.941,213.939 299.051,241.786 274.188,280.466C274.86,281.917 306.479,253.648 284.941,213.939Z" style="fill:rgb(85,0,0);"/>
                </g>
                <g transform="matrix(-0.941524,-0.336947,-0.336947,0.941524,784.982,108.815)">
                    <path d="M284.941,213.939C284.941,213.939 299.051,241.786 274.188,280.466C274.86,281.917 306.479,253.648 284.941,213.939Z" style="fill:rgb(85,0,0);"/>
                </g>
            </g>
            <g id="Cabelo1" serif:id="Cabelo" transform="matrix(-0.43287,-0.901456,-0.901456,0.43287,742.093,637.736)">
                <g transform="matrix(-1,0,0,1,729.237,0)">
                    <path d="M284.941,213.939C284.941,213.939 299.051,241.786 274.188,280.466C274.86,281.917 306.479,253.648 284.941,213.939Z" style="fill:rgb(85,0,0);"/>
                </g>
                <g transform="matrix(-0.941524,-0.336947,-0.336947,0.941524,784.982,108.815)">
                    <path d="M284.941,213.939C284.941,213.939 299.051,241.786 274.188,280.466C274.86,281.917 306.479,253.648 284.941,213.939Z" style="fill:rgb(85,0,0);"/>
                </g>
            </g>
            <g id="Meiuca">
                <path d="M429.168,457.245C429.162,457.216 424.667,455.017 422.539,450.613C420.412,446.208 420.922,439.387 420.922,439.387C420.922,439.387 420.086,421.793 419.717,421.068C419.348,420.342 432.924,423.155 436.822,421.068C440.72,418.98 438.009,421.284 438.619,421.068C439.229,420.851 438.619,446.605 438.619,446.605C438.619,446.605 436.835,451.967 435.462,453.47C434.089,454.973 429.174,457.273 429.168,457.245Z" style="fill:white;"/>
                <path d="M417.709,401.928L419.717,415.934L419.749,421.068L438.619,421.068L440.986,406.066C440.986,406.066 417.918,402.239 417.709,401.928Z" style="fill:rgb(251,189,168);"/>
                <path d="M419.749,419.159C419.749,419.159 429.852,421.766 438.619,419.486C441.157,418.826 438.993,421.883 438.993,421.883C438.993,421.883 437.487,423.35 429.006,422.89C420.525,422.431 419.771,421.908 419.771,421.908C419.771,421.908 419.793,419.037 419.749,419.159Z" style="fill:rgb(142,196,200);"/>
                <path d="M438.618,426.326C438.683,426.318 434.553,427.563 429.006,427.405C423.459,427.247 419.309,426.438 419.749,426.423C420.19,426.408 419.749,428.714 419.749,428.714C419.749,428.714 423.589,429.793 429,429.673C434.411,429.553 438.461,428.641 438.461,428.641C438.461,428.641 438.396,426.35 438.618,426.326Z" style="fill:rgb(142,196,200);"/>
            </g>
            <g id="Meio-Corpo" serif:id="Meio Corpo" transform="matrix(-1,0,0,1,859.306,0)">
                <g id="Fralda">
                    <path d="M471.661,423.598L485.267,411.257C485.267,411.257 486.411,408.58 482.885,402.396C479.358,396.211 476.966,393.995 476.966,393.995L474.433,395.971L471.661,423.598Z" style="fill:white;"/>
                    <path d="M475.358,394.292C475.182,394.24 475.078,394.174 475.079,394.093C475.081,393.923 475.132,393.966 475.358,394.292C476.221,394.549 478.796,394.462 478.846,394.093C478.905,393.649 484.649,400.036 486.278,408.808C486.09,408.769 483.743,411.296 483.743,411.296C483.743,411.296 483.082,406.721 481.095,402.588C479.686,405.52 476.784,410.797 473.663,413.69C473.045,414.263 473.698,411.296 473.698,411.296C473.698,411.296 477.374,406.699 479.197,399.455C479.153,399.399 479.109,399.344 479.065,399.289C476.752,396.41 475.767,394.885 475.358,394.292Z" style="fill:rgb(142,196,200);"/>
                </g>
                <g id="Perna">
                    <path d="M480.081,458.672C480.053,458.742 475.468,452.817 470.825,452.002C466.182,451.187 464.187,450.51 464.187,450.51L470.825,425.08C470.825,425.08 477.898,416.306 483.827,412.41C489.756,408.515 499.414,405.818 504.028,408.066C508.643,410.314 512.176,412.043 512.176,412.043L518.032,420.875L523.71,417.495L523.515,409.748L528.708,402.396L537.124,405.321L538.984,408.922L544.184,411.875L545.15,413.825L548.889,417.36L552.513,420.492L552.457,422.701L555.09,425.762C555.09,425.762 554.152,430.631 554.222,430.634C554.292,430.638 551.484,433.006 551.484,433.006L546.727,450.188C546.727,450.188 532.908,467.495 532.827,467.571C532.747,467.647 517.572,470.754 517.572,470.881C517.572,471.007 506.533,467.055 506.533,467.055L492.173,463.822C492.173,463.822 483.984,458.486 483.963,458.42C483.942,458.354 480.109,458.602 480.081,458.672Z" style="fill:rgb(251,189,168);"/>
                    <path d="M522.593,416.722C522.399,416.157 521.904,414.47 521.229,412.021C520.452,409.195 521.913,404.669 525.561,402.056C529.21,399.444 534.703,400.302 537.706,403.347C539.114,404.775 539.775,406.423 539.957,408.14C540.45,408.066 541.777,408.056 543.712,409.468C544.949,410.37 545.756,411.583 546.05,413.035C546.729,413.037 547.797,413.271 548.975,414.393C549.689,415.074 550.069,415.97 550.19,416.953C550.273,416.992 550.359,417.033 550.447,417.076C553.203,418.425 553.865,420.408 553.581,422.32C554.33,422.885 555.809,424.171 556.251,425.75C556.762,427.575 555.825,432.348 552.264,433.914C552.271,434.294 551.807,442.322 550.029,447.282C548.25,452.243 541.351,465.143 532.924,469.726C526.577,473.177 512.466,475.624 506.683,468.542C506.677,468.553 506.671,468.561 506.663,468.566C495.786,468.072 488.774,464.778 484.593,460.084C482.927,460.288 480.392,460.079 480.392,460.079C480.392,460.079 477.484,456.988 479.146,457.101C480.095,457.165 481.285,456.877 482.131,456.618C481.753,455.938 481.418,455.24 481.124,454.527C477.567,445.905 479.893,434.714 479.893,434.714C479.893,434.714 479.844,448.49 485.594,455.879C491.776,463.824 501.743,465.238 504.96,465.488C504.244,463.531 503.96,461.13 504.247,458.21C504.264,458.041 508.018,470.095 519.2,469.521C530.382,468.947 536.967,461.406 540.667,456.247C544.368,451.088 547.852,447.163 550.171,431.9C550.167,431.9 550.167,431.899 550.172,431.898L550.171,431.9C550.258,431.9 552.205,431.543 553.185,429.507C554.131,427.54 554.032,425.695 552.787,424.68C552.557,425.129 552.296,425.553 552.024,425.939C550.262,428.438 547.319,428.474 547.514,428.325C550.234,426.247 550.88,424.353 551.162,422.011C551.325,420.664 550.65,419.8 550.048,419.31C549.81,420.391 549.356,421.46 548.773,422.374C547.514,424.346 545.038,425.02 544.092,425.211C543.855,425.316 543.717,425.321 543.712,425.276C543.712,425.276 543.853,425.259 544.092,425.211C544.743,424.921 546.135,423.869 547.505,420.985C548.756,418.351 547.185,416.684 546.012,415.871C545.869,416.579 545.63,417.321 545.289,418.091C543.632,421.831 539.321,422.011 539.321,422.011C539.321,422.011 542.784,421.423 543.712,416.374C544.418,412.533 541.397,411.152 539.91,410.71C539.767,411.831 539.482,412.95 539.126,414.029C537.94,417.621 533.507,419.169 533.507,419.169C535.774,416.344 536.785,413.223 536.475,409.358C536.164,405.493 532.321,404.339 530.258,404.533C528.196,404.727 525.551,406.308 524.595,410.08C523.735,413.475 524.275,414.986 525.131,417.05C523.103,418.112 520.37,420.807 516.325,425.854C511.398,432.001 508.547,439.618 508.543,439.571C507.823,431.772 512.76,423.41 515.884,420.463C516.045,420.311 516.208,420.165 516.373,420.027C514.703,417.068 509.679,410.322 498.592,409.756C481.703,408.892 470.825,429.147 470.825,429.147C470.825,429.147 471.844,421.827 471.915,421.851C471.986,421.875 479.561,408.072 493.055,405.523C506.358,403.011 515.021,411.073 518.302,418.713C519.971,417.813 521.289,417.325 522.593,416.722ZM528.729,441.812C528.729,441.812 535.443,441.836 538.075,437.766C540.707,433.696 540.903,428.325 540.903,428.325C540.903,428.325 542.811,433.865 541.078,438.069C539.345,442.272 533.851,443.951 528.729,441.812Z" style="fill:rgb(114,79,67);"/>
                </g>
                <g id="Braço">
                    <path d="M474.285,394.093C474.383,394.136 472.28,419.283 468.846,431.894C465.413,444.504 463.822,450.958 463.876,450.946C463.931,450.934 474.977,453.407 476.847,455.913C478.716,458.419 480.907,460.498 479.839,462.999C478.77,465.5 475.849,465.366 475.849,465.366C475.849,465.366 476.667,466.857 473.664,467.431C470.661,468.006 468.748,466.928 468.748,466.928C468.748,466.928 469.718,469.513 467.048,470.543C464.378,471.573 461.249,470.416 461.249,470.416C461.249,470.416 462.258,472.264 459.184,473.299C456.11,474.334 454.824,474.527 449.162,469.992C443.5,465.457 443.216,463.998 440.584,464.379C437.952,464.761 437.897,465.462 435.238,466.292C432.578,467.121 427.035,467.453 426,463.79C424.965,460.128 425.821,458.128 429.006,457.353C432.191,456.578 433.87,457.589 434.796,455.186C435.723,452.782 438.535,448.295 438.535,448.295C438.535,448.295 438.835,427.793 439.112,419.007C439.39,410.221 442.088,396.448 442.088,396.448C442.088,396.448 474.187,394.051 474.285,394.093Z" style="fill:rgb(251,189,168);"/>
                    <path d="M449.449,460.182C449.449,460.182 460.628,466.104 458.821,470.476C457.014,474.848 452.567,470.159 449.742,468.178C446.917,466.197 443.547,463.268 440.718,463.373C437.89,463.478 437.066,464.535 434.052,465.234C431.039,465.933 427.739,465.564 427.126,462.979C426.641,460.934 427.346,459.41 432.034,457.769C435.194,456.663 435.951,455.554 437.252,452.904C438.553,450.253 439.704,448.69 439.732,448.66C439.76,448.629 440.165,428.023 440.82,419.896C441.476,411.769 443.517,396.722 444.305,395.005C444.179,394.897 440.946,395.649 440.946,395.649C440.946,395.649 438.445,409.894 437.932,415.524C437.42,421.155 436.682,446.976 436.682,446.976C436.682,446.976 434.511,451.376 433.423,453.102C432.335,454.828 430.603,455.482 429.006,455.87C427.41,456.258 423.262,459.135 424.068,462.94C424.916,466.939 427.807,468.477 431.599,467.931C435.39,467.385 438.294,465.538 439.732,465.753C442.359,466.148 446.917,469.744 449.76,472.124C452.602,474.505 456.886,476.241 459.672,474.827C461.606,473.845 462.25,471.92 462.25,471.92C462.25,471.92 466.02,472.967 467.816,471.61C469.613,470.253 470.146,468.668 470.146,468.668C470.146,468.668 473.234,469.677 475.293,468.513C477.245,467.41 477.929,465.222 477.929,465.222C477.929,465.222 481.91,462.466 480.984,459.143C479.529,453.921 474.217,451.503 465.759,450.149C465.849,449.724 471.744,429.044 472.591,422.989C473.439,416.934 476.055,394.093 476.055,394.093L472.483,394.093C472.483,394.093 472.092,405.618 469.072,422.66C466.051,439.701 462.313,451.44 462.313,451.44C462.313,451.44 472.582,452.872 475.888,455.955C479.195,459.039 479.38,460.894 477.127,463.076C476.55,462.247 475.026,459.034 471.332,457.441C467.638,455.848 464.82,455.686 464.82,455.686C464.82,455.686 469.316,457.89 470.896,459.251C472.476,460.612 476.142,463.994 473.714,465.855C471.287,467.717 469.375,465.089 469.375,465.089C469.375,465.089 468.831,462.231 464.873,460.162C460.914,458.093 458.193,458.007 458.193,458.007C458.193,458.007 462.382,460.42 464.234,462.233C466.086,464.046 467.122,464.938 467.052,466.585C466.983,468.231 465.851,469.211 464.041,469.225C463.407,469.23 462.888,468.941 462.888,468.941C462.888,468.941 462.156,466.434 460.188,465.011C458.221,463.589 452.833,460.482 449.449,460.182Z" style="fill:rgb(114,79,67);"/>
                </g>
            </g>
            <g id="Meio-Corpo1" serif:id="Meio Corpo">
                <g id="Fralda1" serif:id="Fralda">
                    <path d="M471.661,423.598L485.267,411.257C485.267,411.257 486.411,408.58 482.885,402.396C479.358,396.211 476.966,393.995 476.966,393.995L474.433,395.971L471.661,423.598Z" style="fill:white;"/>
                    <path d="M475.358,394.292C475.182,394.24 475.078,394.174 475.079,394.093C475.081,393.923 475.132,393.966 475.358,394.292C476.221,394.549 478.796,394.462 478.846,394.093C478.905,393.649 484.649,400.036 486.278,408.808C486.09,408.769 483.743,411.296 483.743,411.296C483.743,411.296 483.082,406.721 481.095,402.588C479.686,405.52 476.784,410.797 473.663,413.69C473.045,414.263 473.698,411.296 473.698,411.296C473.698,411.296 477.374,406.699 479.197,399.455C479.153,399.399 479.109,399.344 479.065,399.289C476.752,396.41 475.767,394.885 475.358,394.292Z" style="fill:rgb(142,196,200);"/>
                </g>
                <g id="Perna1" serif:id="Perna">
                    <path d="M480.081,458.672C480.053,458.742 475.468,452.817 470.825,452.002C466.182,451.187 464.187,450.51 464.187,450.51L470.825,425.08C470.825,425.08 477.898,416.306 483.827,412.41C489.756,408.515 499.414,405.818 504.028,408.066C508.643,410.314 512.176,412.043 512.176,412.043L518.032,420.875L523.71,417.495L523.515,409.748L528.708,402.396L537.124,405.321L538.984,408.922L544.184,411.875L545.15,413.825L548.889,417.36L552.513,420.492L552.457,422.701L555.09,425.762C555.09,425.762 554.152,430.631 554.222,430.634C554.292,430.638 551.484,433.006 551.484,433.006L546.727,450.188C546.727,450.188 532.908,467.495 532.827,467.571C532.747,467.647 517.572,470.754 517.572,470.881C517.572,471.007 506.533,467.055 506.533,467.055L492.173,463.822C492.173,463.822 483.984,458.486 483.963,458.42C483.942,458.354 480.109,458.602 480.081,458.672Z" style="fill:rgb(251,189,168);"/>
                    <path d="M522.593,416.722C522.399,416.157 521.904,414.47 521.229,412.021C520.452,409.195 521.913,404.669 525.561,402.056C529.21,399.444 534.703,400.302 537.706,403.347C539.114,404.775 539.775,406.423 539.957,408.14C540.45,408.066 541.777,408.056 543.712,409.468C544.949,410.37 545.756,411.583 546.05,413.035C546.729,413.037 547.797,413.271 548.975,414.393C549.689,415.074 550.069,415.97 550.19,416.953C550.273,416.992 550.359,417.033 550.447,417.076C553.203,418.425 553.865,420.408 553.581,422.32C554.33,422.885 555.809,424.171 556.251,425.75C556.762,427.575 555.825,432.348 552.264,433.914C552.271,434.294 551.807,442.322 550.029,447.282C548.25,452.243 541.351,465.143 532.924,469.726C526.577,473.177 512.466,475.624 506.683,468.542C506.677,468.553 506.671,468.561 506.663,468.566C495.786,468.072 488.774,464.778 484.593,460.084C482.927,460.288 480.392,460.079 480.392,460.079C480.392,460.079 477.484,456.988 479.146,457.101C480.095,457.165 481.285,456.877 482.131,456.618C481.753,455.938 481.418,455.24 481.124,454.527C477.567,445.905 479.893,434.714 479.893,434.714C479.893,434.714 479.844,448.49 485.594,455.879C491.776,463.824 501.743,465.238 504.96,465.488C504.244,463.531 503.96,461.13 504.247,458.21C504.264,458.041 508.018,470.095 519.2,469.521C530.382,468.947 536.967,461.406 540.667,456.247C544.368,451.088 547.852,447.163 550.171,431.9C550.167,431.9 550.167,431.899 550.172,431.898L550.171,431.9C550.258,431.9 552.205,431.543 553.185,429.507C554.131,427.54 554.032,425.695 552.787,424.68C552.557,425.129 552.296,425.553 552.024,425.939C550.262,428.438 547.319,428.474 547.514,428.325C550.234,426.247 550.88,424.353 551.162,422.011C551.325,420.664 550.65,419.8 550.048,419.31C549.81,420.391 549.356,421.46 548.773,422.374C547.514,424.346 545.038,425.02 544.092,425.211C543.855,425.316 543.717,425.321 543.712,425.276C543.712,425.276 543.853,425.259 544.092,425.211C544.743,424.921 546.135,423.869 547.505,420.985C548.756,418.351 547.185,416.684 546.012,415.871C545.869,416.579 545.63,417.321 545.289,418.091C543.632,421.831 539.321,422.011 539.321,422.011C539.321,422.011 542.784,421.423 543.712,416.374C544.418,412.533 541.397,411.152 539.91,410.71C539.767,411.831 539.482,412.95 539.126,414.029C537.94,417.621 533.507,419.169 533.507,419.169C535.774,416.344 536.785,413.223 536.475,409.358C536.164,405.493 532.321,404.339 530.258,404.533C528.196,404.727 525.551,406.308 524.595,410.08C523.735,413.475 524.275,414.986 525.131,417.05C523.103,418.112 520.37,420.807 516.325,425.854C511.398,432.001 508.547,439.618 508.543,439.571C507.823,431.772 512.76,423.41 515.884,420.463C516.045,420.311 516.208,420.165 516.373,420.027C514.703,417.068 509.679,410.322 498.592,409.756C481.703,408.892 470.825,429.147 470.825,429.147C470.825,429.147 471.844,421.827 471.915,421.851C471.986,421.875 479.561,408.072 493.055,405.523C506.358,403.011 515.021,411.073 518.302,418.713C519.971,417.813 521.289,417.325 522.593,416.722ZM528.729,441.812C528.729,441.812 535.443,441.836 538.075,437.766C540.707,433.696 540.903,428.325 540.903,428.325C540.903,428.325 542.811,433.865 541.078,438.069C539.345,442.272 533.851,443.951 528.729,441.812Z" style="fill:rgb(114,79,67);"/>
                </g>
                <g id="Braço1" serif:id="Braço">
                    <path d="M474.285,394.093C474.383,394.136 472.28,419.283 468.846,431.894C465.413,444.504 463.822,450.958 463.876,450.946C463.931,450.934 474.977,453.407 476.847,455.913C478.716,458.419 480.907,460.498 479.839,462.999C478.77,465.5 475.849,465.366 475.849,465.366C475.849,465.366 476.667,466.857 473.664,467.431C470.661,468.006 468.748,466.928 468.748,466.928C468.748,466.928 469.718,469.513 467.048,470.543C464.378,471.573 461.249,470.416 461.249,470.416C461.249,470.416 462.258,472.264 459.184,473.299C456.11,474.334 454.824,474.527 449.162,469.992C443.5,465.457 443.216,463.998 440.584,464.379C437.952,464.761 437.897,465.462 435.238,466.292C432.578,467.121 427.035,467.453 426,463.79C424.965,460.128 425.821,458.128 429.006,457.353C432.191,456.578 433.87,457.589 434.796,455.186C435.723,452.782 438.535,448.295 438.535,448.295C438.535,448.295 438.835,427.793 439.112,419.007C439.39,410.221 442.088,396.448 442.088,396.448C442.088,396.448 474.187,394.051 474.285,394.093Z" style="fill:rgb(251,189,168);"/>
                    <path d="M449.449,460.182C449.449,460.182 460.628,466.104 458.821,470.476C457.014,474.848 452.567,470.159 449.742,468.178C446.917,466.197 443.547,463.268 440.718,463.373C437.89,463.478 437.066,464.535 434.052,465.234C431.039,465.933 427.739,465.564 427.126,462.979C426.641,460.934 427.346,459.41 432.034,457.769C435.194,456.663 435.951,455.554 437.252,452.904C438.553,450.253 439.704,448.69 439.732,448.66C439.76,448.629 440.165,428.023 440.82,419.896C441.476,411.769 443.517,396.722 444.305,395.005C444.179,394.897 440.946,395.649 440.946,395.649C440.946,395.649 438.445,409.894 437.932,415.524C437.42,421.155 436.682,446.976 436.682,446.976C436.682,446.976 434.511,451.376 433.423,453.102C432.335,454.828 430.603,455.482 429.006,455.87C427.41,456.258 423.262,459.135 424.068,462.94C424.916,466.939 427.807,468.477 431.599,467.931C435.39,467.385 438.294,465.538 439.732,465.753C442.359,466.148 446.917,469.744 449.76,472.124C452.602,474.505 456.886,476.241 459.672,474.827C461.606,473.845 462.25,471.92 462.25,471.92C462.25,471.92 466.02,472.967 467.816,471.61C469.613,470.253 470.146,468.668 470.146,468.668C470.146,468.668 473.234,469.677 475.293,468.513C477.245,467.41 477.929,465.222 477.929,465.222C477.929,465.222 481.91,462.466 480.984,459.143C479.529,453.921 474.217,451.503 465.759,450.149C465.849,449.724 471.744,429.044 472.591,422.989C473.439,416.934 476.055,394.093 476.055,394.093L472.483,394.093C472.483,394.093 472.092,405.618 469.072,422.66C466.051,439.701 462.313,451.44 462.313,451.44C462.313,451.44 472.582,452.872 475.888,455.955C479.195,459.039 479.38,460.894 477.127,463.076C476.55,462.247 475.026,459.034 471.332,457.441C467.638,455.848 464.82,455.686 464.82,455.686C464.82,455.686 469.316,457.89 470.896,459.251C472.476,460.612 476.142,463.994 473.714,465.855C471.287,467.717 469.375,465.089 469.375,465.089C469.375,465.089 468.831,462.231 464.873,460.162C460.914,458.093 458.193,458.007 458.193,458.007C458.193,458.007 462.382,460.42 464.234,462.233C466.086,464.046 467.122,464.938 467.052,466.585C466.983,468.231 465.851,469.211 464.041,469.225C463.407,469.23 462.888,468.941 462.888,468.941C462.888,468.941 462.156,466.434 460.188,465.011C458.221,463.589 452.833,460.482 449.449,460.182Z" style="fill:rgb(114,79,67);"/>
                </g>
            </g>
            <g id="Cabeça" transform="matrix(0.754911,0,0,0.754911,136.393,78.8992)">
                <g>
                    <path d="M263.519,280.53C262.702,277.74 259.914,267.621 248.38,266.298C234.984,264.76 224.556,279.468 221.513,300C218.469,320.532 222.78,344.504 238.221,349.598C243.943,351.486 248.324,350.315 251.457,348.374C256.644,379.684 283.327,414.732 371.04,428.928C397.33,433.183 417.177,432.814 434.8,431.242C468.139,428.267 489.579,418.229 500.95,399.608C503.686,402.95 517.655,404.544 527.49,399.124C539.705,392.391 547.468,376.074 551.259,363.677C555.05,351.281 556.959,333.594 549.71,324.128C543.132,315.538 527.716,314.523 520.141,323.776C524.936,302.996 529.586,292.905 533.979,277.833C543.165,246.323 568.067,161.727 429.868,135.917C301.507,111.945 276.718,185.219 271.094,218.516C266.738,244.31 267.26,263.017 263.519,280.53Z" style="fill:rgb(251,189,168);"/>
                    <g transform="matrix(1.99741,0.453771,-0.400571,1.76323,-273.99,-446.648)">
                        <path d="M426.741,300C435.645,300 442.873,311.13 442.873,324.838C442.873,338.546 435.645,349.676 426.741,349.676C409.446,349.676 410.609,338.546 410.609,324.838C410.609,311.13 417.838,300 426.741,300Z" style="fill:white;"/>
                    </g>
                    <g transform="matrix(1.02116,0.231986,-0.241093,1.06125,70.7946,-111.112)">
                        <ellipse cx="426.741" cy="324.838" rx="16.132" ry="24.838"/>
                    </g>
                    <g transform="matrix(0.827193,0.187921,-0.195299,0.859669,138.691,-26.8278)">
                        <ellipse cx="426.741" cy="324.838" rx="16.132" ry="24.838" style="fill:rgb(49,12,0);"/>
                    </g>
                    <g transform="matrix(0.615343,0.139793,-0.145282,0.639501,212.849,65.2291)">
                        <ellipse cx="426.741" cy="324.838" rx="16.132" ry="24.838"/>
                    </g>
                    <g transform="matrix(0.418785,0.0951394,-0.0750287,0.330262,271.061,165.675)">
                        <ellipse cx="426.741" cy="324.838" rx="16.132" ry="24.838" style="fill:white;"/>
                    </g>
                    <g transform="matrix(0.152042,0.0345408,-0.0258411,0.113748,375.923,275.578)">
                        <ellipse cx="426.741" cy="324.838" rx="16.132" ry="24.838" style="fill:white;"/>
                    </g>
                    <g transform="matrix(-5.55112e-17,1.04718,-1.08829,2.77556e-17,825.511,-78.3184)">
                        <ellipse cx="426.741" cy="324.838" rx="16.132" ry="24.838" style="fill:rgb(255,208,192);"/>
                    </g>
                    <g transform="matrix(-2.03317,-0.248527,-0.21939,1.7948,1269.97,-177.903)">
                        <path d="M426.741,300C435.645,300 442.873,311.13 442.873,324.838C442.873,338.546 435.645,349.676 426.741,349.676C409.446,349.676 410.609,338.546 410.609,324.838C410.609,311.13 417.838,300 426.741,300Z" style="fill:white;"/>
                    </g>
                    <g transform="matrix(-1.03944,-0.127057,-0.132045,1.08025,832.016,21.2474)">
                        <ellipse cx="426.741" cy="324.838" rx="16.132" ry="24.838"/>
                    </g>
                    <g transform="matrix(-0.865575,-0.105804,-0.109958,0.899557,750.646,70.8732)">
                        <ellipse cx="426.741" cy="324.838" rx="16.132" ry="24.838" style="fill:rgb(49,12,0);"/>
                    </g>
                    <g transform="matrix(-0.590987,-0.0722399,-0.075076,0.614189,622.137,149.248)">
                        <ellipse cx="426.741" cy="324.838" rx="16.132" ry="24.838"/>
                    </g>
                    <g transform="matrix(0.476871,-0.932294,0.968896,0.495593,-227.32,572.318)">
                        <ellipse cx="426.741" cy="324.838" rx="16.132" ry="24.838" style="fill:rgb(255,208,192);"/>
                    </g>
                    <path d="M516.102,355.463L516.104,355.463C516.104,355.463 516.129,355.803 516.149,356.144C516.217,357.28 516.313,359.654 516.137,362.895C515.444,375.659 510.437,401.736 482.534,418.574C467.992,427.349 447.22,433.733 417.504,434.128C404.447,434.302 389.663,433.251 372.922,430.835C355.182,428.023 339.875,424.388 326.735,419.978C297.009,409.999 278.231,396.515 266.455,382.597C236.55,347.249 252.218,308.056 252.219,307.992C252.219,307.495 252.623,307.092 253.12,307.092C253.617,307.092 254.021,307.495 254.021,307.992C254.022,308.054 239.446,346.581 269.411,380.024C281.137,393.112 299.749,405.22 328.592,414.255C341.537,418.31 356.518,421.821 373.908,424.385C390.257,427.029 404.712,428.219 417.497,428.355C446.155,428.658 466.392,423.408 480.655,415.355C507.878,399.986 513.276,374.995 514.218,362.769C514.459,359.64 514.406,357.342 514.35,356.244L514.301,355.508C514.298,355.438 514.303,355.393 514.304,355.375C514.366,354.737 515.777,353.534 516.089,355.307C516.098,355.36 516.103,355.412 516.102,355.463Z" style="fill:rgb(114,79,67);"/>
                    <path d="M262.85,281.144C262.85,281.144 263.715,268.125 265.075,252.183C265.316,249.362 265.586,246.454 265.885,243.51C266.573,236.732 267.392,229.777 268.112,223.311C270.075,205.941 275.984,160.116 324.592,139.109C347.908,129.033 381.182,124.727 428.756,132.287C472.327,139.401 499.98,153.69 517.336,170.174C558.635,209.398 542.259,261.063 542.259,261.063C542.253,261.082 542.247,261.102 542.24,261.121C542.24,261.121 535.278,282.324 529.044,300.738C527.4,305.595 525.753,310.223 524.335,314.248C523.917,315.434 523.487,316.543 523.106,317.609C522.619,318.972 522.139,320.207 521.809,321.358C521.541,322.29 521.381,323.156 521.222,323.914C521.114,324.434 520.603,324.769 520.082,324.661C519.562,324.552 519.227,324.042 519.335,323.521C519.496,322.743 519.734,321.874 519.931,320.9C520.34,318.882 520.657,316.461 521.241,313.786C522.293,308.969 523.735,303.318 525.391,297.517C530.495,279.633 537.196,260.338 537.475,259.537C537.865,258.23 551.745,210.531 513.273,174.481C496.454,158.72 469.737,145.198 427.751,138.519C381.739,130.999 349.534,134.907 326.896,144.493C280.715,164.049 274.89,207.442 272.861,223.873C272.054,230.325 271.247,237.278 270.363,244.031C269.979,246.963 269.577,249.856 269.167,252.656C266.853,268.486 264.765,281.362 264.765,281.362C264.705,281.891 264.227,282.271 263.698,282.21C263.17,282.15 262.79,281.672 262.85,281.144Z" style="fill:rgb(114,79,67);"/>
                    <path d="M501.391,399.005C501.391,399.005 517.43,407.015 531.286,395.812C535.281,392.583 539.041,387.737 542.302,380.656C543.906,377.173 545.4,373.166 546.696,368.536C548.111,363.791 549.086,359.435 549.817,355.465C551.29,347.468 551.533,341.018 550.807,335.82C549.413,325.848 544.761,320.717 540.398,319.023C537.507,317.88 533.749,318.278 530.251,319.371C526.339,320.592 522.731,322.652 520.921,324.724C520.604,325.12 520.025,325.184 519.629,324.867C519.232,324.55 519.168,323.971 519.485,323.575C521.294,321.103 525.068,318.425 529.296,316.707C533.442,315.022 538.004,314.372 541.636,315.479C547.114,317.184 553.673,322.825 556.066,334.934C557.183,340.587 557.401,347.719 555.967,356.532C555.283,360.736 554.15,365.314 552.646,370.317C551.074,375.246 549.35,379.515 547.449,383.176C543.403,390.966 538.756,396.127 534.019,399.445C526.942,404.401 519.69,405.34 513.717,404.728C505.997,403.939 500.508,400.617 500.508,400.617C500.063,400.374 499.9,399.814 500.143,399.37C500.387,398.925 500.946,398.761 501.391,399.005Z" style="fill:rgb(114,79,67);"/>
                    <g transform="matrix(0.999875,0.0157827,-0.0157827,0.999875,4.82882,-7.42757)">
                        <path d="M480.825,328.445C480.825,328.461 480.822,328.478 480.816,328.495C480.813,328.504 480.492,328.589 480.518,328.365C480.525,328.305 480.54,328.183 480.554,327.999C480.6,327.377 480.578,326.11 480.634,324.318C480.75,320.582 480.909,314.707 479.952,308.302C479.486,305.182 478.751,301.965 477.697,298.793C477.296,297.585 476.851,296.386 476.364,295.197C475.649,293.451 474.839,291.734 473.853,290.091C472.828,288.385 471.663,286.744 470.26,285.223C467.275,281.986 463.406,279.211 458.186,277.415C457.527,277.188 456.835,277.029 456.151,276.785C455.128,276.419 454.181,275.952 453.09,275.567C453.004,275.555 452.943,275.475 452.955,275.389C452.968,275.302 453.048,275.242 453.134,275.254C454.362,275.185 455.489,275.099 456.638,275.202C465.585,276.002 471.777,280.47 476.088,285.599C478.229,288.147 479.853,291.027 481.057,294.033C481.487,295.107 481.847,296.205 482.148,297.313C482.857,299.915 483.29,302.56 483.506,305.156C484.033,311.495 483.343,317.461 482.63,321.812C482.523,322.463 482.445,323.08 482.315,323.647C481.858,325.631 481.29,327.024 481.029,327.816C480.933,328.111 480.873,328.31 480.842,328.406C480.838,328.421 480.832,328.434 480.825,328.445Z"/>
                    </g>
                    <g transform="matrix(-0.978317,-0.207113,-0.207113,0.978317,836.283,78.9444)">
                        <path d="M480.825,328.445C480.832,328.434 480.838,328.421 480.842,328.406C480.873,328.31 480.933,328.111 481.029,327.816C481.29,327.024 481.858,325.631 482.315,323.647C482.445,323.08 482.523,322.463 482.63,321.813C483.343,317.461 484.033,311.495 483.506,305.156C483.29,302.56 482.857,299.916 482.148,297.313C481.847,296.205 481.487,295.107 481.057,294.033C479.853,291.027 478.229,288.147 476.088,285.599C471.777,280.47 465.585,276.002 456.637,275.202C455.489,275.099 454.362,275.185 453.134,275.254C453.048,275.242 452.968,275.302 452.955,275.389C452.943,275.475 453.004,275.555 453.09,275.567C454.181,275.952 455.128,276.419 456.151,276.785C456.835,277.029 457.527,277.188 458.186,277.415C463.406,279.212 467.275,281.986 470.26,285.223C471.663,286.744 472.828,288.385 473.853,290.091C474.839,291.734 475.649,293.451 476.364,295.197C476.851,296.386 477.296,297.585 477.697,298.793C478.751,301.965 479.486,305.182 479.952,308.302C480.909,314.707 480.75,320.582 480.634,324.318C480.578,326.11 480.6,327.377 480.554,327.999C480.54,328.183 480.525,328.305 480.518,328.365C480.492,328.589 480.813,328.504 480.816,328.495C480.822,328.478 480.825,328.461 480.825,328.445Z"/>
                    </g>
                    <g transform="matrix(-1.32466,0,0,1.32466,772.07,-104.515)">
                        <path d="M364.746,293.479C364.746,293.479 358.928,296.036 355.469,290.715C356.704,294.341 357.92,299.418 358.026,305.908C361.582,302.916 363.871,299.631 364.746,293.479Z"/>
                    </g>
                    <g transform="matrix(1.28672,0.314776,-0.314776,1.28672,115.738,-177.163)">
                        <path d="M364.746,293.479C364.746,293.479 358.928,296.036 355.469,290.715C356.704,294.341 357.92,299.418 358.026,305.908C361.582,302.916 363.871,299.631 364.746,293.479Z"/>
                    </g>
                    <path d="M251.103,349.426C251.103,349.426 237.491,354.821 227.438,343.953C224.094,340.338 221.141,334.898 219.329,326.798C218.202,321.761 217.587,315.666 217.534,308.321C217.652,300.846 218.497,294.411 220.073,289.012C223.873,275.998 231.164,268.723 238.588,266.085C249.451,262.225 261.169,268.027 264.684,280.963C264.837,281.446 264.57,281.964 264.086,282.118C263.603,282.272 263.086,282.004 262.932,281.521C259.047,270.918 249.149,266.39 240.255,270.291C234.17,272.96 228.895,279.59 226.003,290.653C224.694,295.66 223.781,301.543 223.664,308.421C223.389,315.301 223.748,321.025 224.517,325.801C225.675,333.004 227.769,337.987 230.442,341.392C238.35,351.466 250.486,347.694 250.486,347.694C250.964,347.524 251.49,347.773 251.661,348.251C251.831,348.729 251.581,349.255 251.103,349.426Z" style="fill:rgb(114,79,67);"/>
                    <g transform="matrix(1,0,0,1,-1,0)">
                        <path d="M374.86,353.927C374.86,353.927 368.515,351.968 369.313,345.949C369.96,341.071 377.612,338.939 384.82,339.802C392.028,340.665 399.27,345.262 398.742,349.564C398.214,353.867 396.194,356.288 391.222,356.823C391.149,356.809 395.249,354.444 395,351.405C394.686,347.585 391.524,345.441 384.403,344.627C376.43,343.716 372.985,345.637 372.606,348.302C372.227,350.968 374.86,353.927 374.86,353.927Z" style="fill:rgb(114,79,67);"/>
                    </g>
                    <g transform="matrix(1,0,0,1,-1,0)">
                        <path d="M366.352,360.545C364.979,364.765 364.242,365.971 361.977,367.667C359.507,369.518 359.771,368.945 356.131,370.193C356.066,370.215 360.693,372.381 363.572,370.672C363.73,370.807 367.853,375.148 367.853,375.148C367.853,375.148 367.1,378.993 366.156,384.162C365.417,388.21 362.15,395.592 364.327,402.734C365.256,405.782 370.025,410.098 375.889,410.331C385.321,410.705 388.685,405.949 390.599,402.312C392.513,398.675 393.767,394.081 395,386.864C396.233,379.646 397.518,375.862 397.518,375.862L400,375.425C400,375.425 402.654,378.975 406.365,378.055C406.774,377.706 403.187,376.356 402.227,372.295C401.268,368.234 401.512,366.016 401.512,366.016C401.512,366.016 399.126,369.357 398.769,371.95C398.569,371.873 398.485,372.835 395,370.431C391.515,368.028 384.792,364.278 380.485,364.007C376.177,363.736 370.845,364.141 367.205,367C367.454,366.805 366.35,360.494 366.352,360.545ZM392.644,377.968C392.66,377.917 395,377.62 395,377.62C395,377.62 391.611,390.166 389.662,396.561C388.391,400.734 384.313,406.337 376.43,406.297C368.547,406.257 367.382,400.572 367.295,395.897C367.208,391.222 370.265,376.697 370.265,376.697L372,377.611C372,377.611 370.906,391.07 371.438,393.933C371.97,396.796 373.949,399.914 377.128,400.147C380.306,400.38 383.75,399.365 385.9,394.776C388.049,390.187 391.593,381.328 392.644,377.968ZM365.278,368.966C365.213,368.89 373.862,367.091 379.046,367.227C384.23,367.362 396.107,374.248 396.107,374.248C396.107,374.248 393.261,376.206 385.415,376.52C370.553,377.115 366.285,370.159 365.278,368.966Z" style="fill:rgb(114,79,67);"/>
                    </g>
                    <g transform="matrix(0.418785,0.0951394,-0.0750287,0.330262,186.358,152.038)">
                        <ellipse cx="426.741" cy="324.838" rx="16.132" ry="24.838" style="fill:white;"/>
                    </g>
                    <g transform="matrix(0.152042,0.0345408,-0.0258411,0.113748,291.22,261.867)">
                        <ellipse cx="426.741" cy="324.838" rx="16.132" ry="24.838" style="fill:white;"/>
                    </g>
                </g>
            </g>
            <g id="Cabelo2" serif:id="Cabelo">
                <g transform="matrix(0.707107,-0.707107,-0.707107,-0.707107,400.668,529.844)">
                    <path d="M284.941,213.939C284.941,213.939 299.051,241.786 274.188,280.466C274.86,281.917 306.479,253.648 284.941,213.939Z" style="fill:rgb(85,0,0);"/>
                </g>
                <g transform="matrix(0.904015,-0.4275,-0.4275,-0.904015,284.307,492.318)">
                    <path d="M284.941,213.939C284.941,213.939 299.051,241.786 274.188,280.466C274.86,281.917 306.479,253.648 284.941,213.939Z" style="fill:rgb(85,0,0);"/>
                </g>
                <g transform="matrix(-1,0,0,1,729.237,0)">
                    <path d="M284.961,214.575C284.961,214.575 293.506,270.091 199.95,323.277C200.008,324.088 161.114,277.913 176.344,233.712C191.574,189.511 230.822,179.91 281.028,171.271C331.233,162.632 427.892,173.367 394.82,291.603C394.931,292.227 332.879,288.673 284.961,214.575Z" style="fill:rgb(107,31,0);"/>
                </g>
                <g transform="matrix(-1,0,0,1,729.237,0)">
                    <path d="M284.077,214.444C284.077,214.444 300.643,242.803 330.109,265.445C347.035,278.451 368.211,289.566 392.934,292.382C393.483,292.444 393.979,292.05 394.041,291.501C394.104,290.953 393.709,290.457 393.161,290.394C368.824,287.623 347.988,276.662 331.328,263.86C302.192,241.471 285.804,213.435 285.804,213.435C285.526,212.958 284.913,212.797 284.436,213.076C283.96,213.354 283.799,213.967 284.077,214.444Z" style="fill:rgb(85,0,0);"/>
                </g>
                <g transform="matrix(-1,0,0,1,729.237,0)">
                    <path d="M391.951,290.619C391.533,291.36 391.621,292.316 392.232,292.969C392.986,293.775 394.253,293.818 395.059,293.064C395.089,293.036 395.369,292.768 395.654,292.144C395.861,291.69 396.272,290.735 396.804,289.327C398.631,284.489 401.941,274.169 403.266,260.508C404.19,250.979 404.149,239.823 401.968,227.769C398.852,210.545 389.256,197.151 377.255,187.571C363.715,176.762 347.114,170.831 333.423,169.707C325.917,169.091 317.657,168.888 309.751,168.91C291.058,168.96 274.349,170.262 274.349,170.262C274.346,170.262 274.342,170.262 274.338,170.262C274.338,170.262 243.446,172.848 217.144,185.095C204.546,190.961 193.019,199.05 186.256,210.026C176.961,225.113 172.897,240.682 172.32,255.113C171.595,273.29 176.412,289.665 183.282,301.034C187.045,307.261 189.953,311.877 192.173,315.281C197.232,323.04 198.842,324.677 198.842,324.677C199.456,325.313 200.414,325.47 201.199,325.064C201.199,325.064 227.805,311.314 249.826,291.04C259.956,281.713 269.106,271.003 274.344,259.634C279.567,248.298 282.742,239.606 284.645,233.018C289.037,217.809 286.775,213.142 286.775,213.142C286.335,212.13 285.156,211.665 284.143,212.105C283.131,212.545 282.667,213.724 283.107,214.737C283.107,214.737 284.609,218.726 280.802,231.908C278.939,238.357 275.824,246.863 270.712,257.96C265.679,268.882 256.848,279.137 247.116,288.097C228.495,305.241 206.535,317.635 200.794,320.748C199.891,319.561 198.248,317.275 195.523,313.096C193.321,309.72 190.438,305.141 186.706,298.966C180.17,288.15 175.627,272.564 176.317,255.273C176.869,241.461 180.765,226.563 189.662,212.124C196.033,201.783 206.963,194.248 218.833,188.721C244.254,176.885 274.068,174.3 274.662,174.249C274.975,174.225 288.068,173.218 303.908,172.965C313.371,172.814 323.817,172.932 333.096,173.693C346.112,174.762 361.887,180.42 374.76,190.697C386.045,199.706 395.101,212.283 398.032,228.481C400.14,240.131 400.178,250.913 399.285,260.122C398.007,273.295 394.824,283.249 393.062,287.914C392.578,289.196 392.205,290.068 392.016,290.482L391.951,290.619Z" style="fill:rgb(85,0,0);"/>
                </g>
                <g transform="matrix(0.754911,0,0,0.754911,136.393,78.8992)">
                    <path d="M501.391,399.005C501.391,399.005 517.449,407.057 531.308,395.841C534.138,393.551 536.842,390.439 539.362,386.306C542.15,381.736 544.675,375.928 546.718,368.542C548.533,362.449 549.646,357.005 550.338,352.174C551.269,345.674 551.354,340.29 550.722,335.834C549.318,325.927 544.691,320.83 540.351,319.157C537.995,318.229 534.641,319.155 531.246,320.648C525.797,323.045 520.316,327.051 518.204,329.478C517.887,329.874 517.308,329.938 516.912,329.621C516.516,329.304 516.452,328.725 516.769,328.329C518.801,325.564 524.259,320.801 529.848,317.787C534.123,315.481 538.511,314.375 541.683,315.345C547.183,317.072 553.77,322.748 556.15,334.919C557.106,339.805 557.389,345.787 556.496,352.996C555.862,358.122 554.563,363.867 552.624,370.311C551.046,375.236 549.317,379.5 547.414,383.159C543.368,390.94 538.728,396.097 533.997,399.416C528.27,403.434 522.429,404.825 517.233,404.872C507.725,404.959 500.508,400.617 500.508,400.617C500.063,400.374 499.9,399.814 500.143,399.37C500.387,398.925 500.946,398.761 501.391,399.005Z" style="fill:rgb(114,79,67);"/>
                </g>
                <g transform="matrix(0.754911,0,0,0.754911,136.393,78.8992)">
                    <path d="M251.103,349.426C251.103,349.426 237.496,354.8 227.465,343.93C224.13,340.315 221.189,334.879 219.38,326.788C218.255,321.753 217.632,315.663 217.575,308.322C217.637,301.844 218.276,296.091 219.534,291.103C222.318,280.067 227.614,272.619 233.422,268.594C246.049,259.843 262.086,266.286 264.715,287.886C264.796,288.386 264.456,288.859 263.955,288.94C263.454,289.021 262.981,288.681 262.9,288.18C259.294,270.43 246.514,264.798 236.485,272.732C232.411,275.955 228.949,281.318 226.655,288.79C225.931,291.146 225.326,293.705 224.838,296.472C224.197,300.097 223.739,304.072 223.623,308.421C223.344,315.304 223.695,321.032 224.465,325.811C225.626,333.023 227.735,338.009 230.414,341.415C238.341,351.488 250.486,347.694 250.486,347.694C250.964,347.524 251.49,347.773 251.661,348.251C251.831,348.729 251.581,349.255 251.103,349.426Z" style="fill:rgb(114,79,67);"/>
                </g>
                <g transform="matrix(-1,0,0,1,729.237,0)">
                    <path d="M284.941,213.939C284.941,213.939 299.051,241.786 274.188,280.466C274.86,281.917 306.479,253.648 284.941,213.939Z" style="fill:rgb(85,0,0);"/>
                </g>
                <g transform="matrix(-0.941524,-0.336947,-0.336947,0.941524,784.982,108.815)">
                    <path d="M284.941,213.939C284.941,213.939 299.051,241.786 274.188,280.466C274.86,281.917 306.479,253.648 284.941,213.939Z" style="fill:rgb(85,0,0);"/>
                </g>
                <g transform="matrix(-1,0,0,1,729.237,0)">
                    <path d="M284.941,213.939C284.941,213.939 299.051,241.786 274.188,280.466C274.86,281.917 306.479,253.648 284.941,213.939Z" style="fill:rgb(85,0,0);"/>
                </g>
                <g transform="matrix(-0.941524,-0.336947,-0.336947,0.941524,784.982,108.815)">
                    <path d="M284.941,213.939C284.941,213.939 299.051,241.786 274.188,280.466C274.86,281.917 306.479,253.648 284.941,213.939Z" style="fill:rgb(85,0,0);"/>
                </g>
                <g transform="matrix(-0.781587,-0.623796,-0.623796,0.781587,733.639,202.897)">
                    <path d="M284.941,213.939C284.941,213.939 299.051,241.786 274.188,280.466C274.86,281.917 306.479,253.648 284.941,213.939Z" style="fill:rgb(157,74,40);"/>
                </g>
                <g transform="matrix(-0.919517,0.393051,0.393051,0.919517,646.985,-86.1748)">
                    <path d="M292.234,201.366C292.234,201.366 302.831,253.551 276.701,287.598C285.701,276.391 310.144,250.118 292.234,201.366Z" style="fill:rgb(157,74,40);"/>
                </g>
            </g>
            <g id="Brincos">
                <g transform="matrix(-1,0,0,1,709.237,0)">
                    <circle cx="180.105" cy="373.699" r="3.755" style="fill:rgb(255,0,120);stroke:rgb(184,0,87);stroke-width:1.83px;"/>
                </g>
                <g transform="matrix(-1,0,0,1,496.829,-42.7537)">
                    <circle cx="180.105" cy="373.699" r="3.755" style="fill:rgb(255,0,120);stroke:rgb(184,0,87);stroke-width:1.83px;"/>
                </g>
            </g>
        </g>
        <g id="Baby-Ben" serif:id="Baby Ben" transform="matrix(1.34992,0,0,1.16157,6.64679,-48.4834)">
            <g id="Meiuca1" serif:id="Meiuca">
                <path d="M429.168,457.245C429.162,457.216 424.667,455.017 422.539,450.613C420.412,446.208 420.922,439.387 420.922,439.387C420.922,439.387 420.086,421.793 419.717,421.068C419.348,420.342 432.924,423.155 436.822,421.068C440.72,418.98 438.009,421.284 438.619,421.068C439.229,420.851 438.619,446.605 438.619,446.605C438.619,446.605 436.835,451.967 435.462,453.47C434.089,454.973 429.174,457.273 429.168,457.245Z" style="fill:white;"/>
                <path d="M417.709,401.928L419.717,415.934L419.749,421.068L438.619,421.068L440.986,406.066C440.986,406.066 417.918,402.239 417.709,401.928Z" style="fill:rgb(251,189,167);"/>
                <path d="M419.749,419.159C419.749,419.159 429.852,421.766 438.619,419.486C441.157,418.826 438.993,421.883 438.993,421.883C438.993,421.883 437.487,423.35 429.006,422.89C420.525,422.431 419.771,421.908 419.771,421.908C419.771,421.908 419.793,419.037 419.749,419.159Z" style="fill:rgb(142,196,200);"/>
                <path d="M438.618,426.326C438.683,426.318 434.553,427.563 429.006,427.405C423.459,427.247 419.309,426.438 419.749,426.423C420.19,426.408 419.749,428.714 419.749,428.714C419.749,428.714 423.589,429.793 429,429.673C434.411,429.553 438.461,428.641 438.461,428.641C438.461,428.641 438.396,426.35 438.618,426.326Z" style="fill:rgb(142,196,200);"/>
            </g>
            <g id="Meio-Corpo2" serif:id="Meio Corpo" transform="matrix(-1,0,0,1,859.306,0)">
                <g id="Fralda2" serif:id="Fralda">
                    <path d="M471.661,423.598L485.267,411.257C485.267,411.257 486.411,408.58 482.885,402.396C479.358,396.211 476.966,393.995 476.966,393.995L474.433,395.971L471.661,423.598Z" style="fill:white;"/>
                    <path d="M475.358,394.292C475.182,394.24 475.078,394.174 475.079,394.093C475.081,393.923 475.132,393.966 475.358,394.292C476.221,394.549 478.796,394.462 478.846,394.093C478.905,393.649 484.649,400.036 486.278,408.808C486.09,408.769 483.743,411.296 483.743,411.296C483.743,411.296 483.082,406.721 481.095,402.588C479.686,405.52 476.784,410.797 473.663,413.69C473.045,414.263 473.698,411.296 473.698,411.296C473.698,411.296 477.374,406.699 479.197,399.455C479.153,399.399 479.109,399.344 479.065,399.289C476.752,396.41 475.767,394.885 475.358,394.292Z" style="fill:rgb(142,196,200);"/>
                </g>
                <g id="Perna2" serif:id="Perna">
                    <path d="M480.081,458.672C480.053,458.742 475.468,452.817 470.825,452.002C466.182,451.187 464.187,450.51 464.187,450.51L470.825,425.08C470.825,425.08 477.898,416.306 483.827,412.41C489.756,408.515 499.414,405.818 504.028,408.066C508.643,410.314 512.176,412.043 512.176,412.043L518.032,420.875L523.71,417.495L523.515,409.748L528.708,402.396L537.124,405.321L538.984,408.922L544.184,411.875L545.15,413.825L548.889,417.36L552.513,420.492L552.457,422.701L555.09,425.762C555.09,425.762 554.152,430.631 554.222,430.634C554.292,430.638 551.484,433.006 551.484,433.006L546.727,450.188C546.727,450.188 532.908,467.495 532.827,467.571C532.747,467.647 517.572,470.754 517.572,470.881C517.572,471.007 506.533,467.055 506.533,467.055L492.173,463.822C492.173,463.822 483.984,458.486 483.963,458.42C483.942,458.354 480.109,458.602 480.081,458.672Z" style="fill:rgb(251,189,168);"/>
                    <path d="M522.593,416.722C522.399,416.157 521.904,414.47 521.229,412.021C520.452,409.195 521.913,404.669 525.561,402.056C529.21,399.444 534.703,400.302 537.706,403.347C539.114,404.775 539.775,406.423 539.957,408.14C540.45,408.066 541.777,408.056 543.712,409.468C544.949,410.37 545.756,411.583 546.05,413.035C546.729,413.037 547.797,413.271 548.975,414.393C549.689,415.074 550.069,415.97 550.19,416.953C550.273,416.992 550.359,417.033 550.447,417.076C553.203,418.425 553.865,420.408 553.581,422.32C554.33,422.885 555.809,424.171 556.251,425.75C556.762,427.575 555.825,432.348 552.264,433.914C552.271,434.294 551.807,442.322 550.029,447.282C548.25,452.243 541.351,465.143 532.924,469.726C526.577,473.177 512.466,475.624 506.683,468.542C506.677,468.553 506.671,468.561 506.663,468.566C495.786,468.072 488.774,464.778 484.593,460.084C482.927,460.288 480.392,460.079 480.392,460.079C480.392,460.079 477.484,456.988 479.146,457.101C480.095,457.165 481.285,456.877 482.131,456.618C481.753,455.938 481.418,455.24 481.124,454.527C477.567,445.905 479.893,434.714 479.893,434.714C479.893,434.714 479.844,448.49 485.594,455.879C491.776,463.824 501.743,465.238 504.96,465.488C504.244,463.531 503.96,461.13 504.247,458.21C504.264,458.041 508.018,470.095 519.2,469.521C530.382,468.947 536.967,461.406 540.667,456.247C544.368,451.088 547.852,447.163 550.171,431.9C550.167,431.9 550.167,431.899 550.172,431.898L550.171,431.9C550.258,431.9 552.205,431.543 553.185,429.507C554.131,427.54 554.032,425.695 552.787,424.68C552.557,425.129 552.296,425.553 552.024,425.939C550.262,428.438 547.319,428.474 547.514,428.325C550.234,426.247 550.88,424.353 551.162,422.011C551.325,420.664 550.65,419.8 550.048,419.31C549.81,420.391 549.356,421.46 548.773,422.374C547.514,424.346 545.038,425.02 544.092,425.211C543.855,425.316 543.717,425.321 543.712,425.276C543.712,425.276 543.853,425.259 544.092,425.211C544.743,424.921 546.135,423.869 547.505,420.985C548.756,418.351 547.185,416.684 546.012,415.871C545.869,416.579 545.63,417.321 545.289,418.091C543.632,421.831 539.321,422.011 539.321,422.011C539.321,422.011 542.784,421.423 543.712,416.374C544.418,412.533 541.397,411.152 539.91,410.71C539.767,411.831 539.482,412.95 539.126,414.029C537.94,417.621 533.507,419.169 533.507,419.169C535.774,416.344 536.785,413.223 536.475,409.358C536.164,405.493 532.321,404.339 530.258,404.533C528.196,404.727 525.551,406.308 524.595,410.08C523.735,413.475 524.275,414.986 525.131,417.05C523.103,418.112 520.37,420.807 516.325,425.854C511.398,432.001 508.547,439.618 508.543,439.571C507.823,431.772 512.76,423.41 515.884,420.463C516.045,420.311 516.208,420.165 516.373,420.027C514.703,417.068 509.679,410.322 498.592,409.756C481.703,408.892 470.825,429.147 470.825,429.147C470.825,429.147 471.844,421.827 471.915,421.851C471.986,421.875 479.561,408.072 493.055,405.523C506.358,403.011 515.021,411.073 518.302,418.713C519.971,417.813 521.289,417.325 522.593,416.722ZM528.729,441.812C528.729,441.812 535.443,441.836 538.075,437.766C540.707,433.696 540.903,428.325 540.903,428.325C540.903,428.325 542.811,433.865 541.078,438.069C539.345,442.272 533.851,443.951 528.729,441.812Z" style="fill:rgb(114,79,67);"/>
                </g>
                <g id="Braço2" serif:id="Braço">
                    <path d="M474.285,394.093C474.383,394.136 472.28,419.283 468.846,431.894C465.413,444.504 463.822,450.958 463.876,450.946C463.931,450.934 474.977,453.407 476.847,455.913C478.716,458.419 480.907,460.498 479.839,462.999C478.77,465.5 475.849,465.366 475.849,465.366C475.849,465.366 476.667,466.857 473.664,467.431C470.661,468.006 468.748,466.928 468.748,466.928C468.748,466.928 469.718,469.513 467.048,470.543C464.378,471.573 461.249,470.416 461.249,470.416C461.249,470.416 462.258,472.264 459.184,473.299C456.11,474.334 454.824,474.527 449.162,469.992C443.5,465.457 443.216,463.998 440.584,464.379C437.952,464.761 437.897,465.462 435.238,466.292C432.578,467.121 427.035,467.453 426,463.79C424.965,460.128 425.821,458.128 429.006,457.353C432.191,456.578 433.87,457.589 434.796,455.186C435.723,452.782 438.535,448.295 438.535,448.295C438.535,448.295 438.835,427.793 439.112,419.007C439.39,410.221 442.088,396.448 442.088,396.448C442.088,396.448 474.187,394.051 474.285,394.093Z" style="fill:rgb(251,189,168);"/>
                    <path d="M449.449,460.182C449.449,460.182 460.628,466.104 458.821,470.476C457.014,474.848 452.567,470.159 449.742,468.178C446.917,466.197 443.547,463.268 440.718,463.373C437.89,463.478 437.066,464.535 434.052,465.234C431.039,465.933 427.739,465.564 427.126,462.979C426.641,460.934 427.346,459.41 432.034,457.769C435.194,456.663 435.951,455.554 437.252,452.904C438.553,450.253 439.704,448.69 439.732,448.66C439.76,448.629 440.165,428.023 440.82,419.896C441.476,411.769 443.517,396.722 444.305,395.005C444.179,394.897 440.946,395.649 440.946,395.649C440.946,395.649 438.445,409.894 437.932,415.524C437.42,421.155 436.682,446.976 436.682,446.976C436.682,446.976 434.511,451.376 433.423,453.102C432.335,454.828 430.603,455.482 429.006,455.87C427.41,456.258 423.262,459.135 424.068,462.94C424.916,466.939 427.807,468.477 431.599,467.931C435.39,467.385 438.294,465.538 439.732,465.753C442.359,466.148 446.917,469.744 449.76,472.124C452.602,474.505 456.886,476.241 459.672,474.827C461.606,473.845 462.25,471.92 462.25,471.92C462.25,471.92 466.02,472.967 467.816,471.61C469.613,470.253 470.146,468.668 470.146,468.668C470.146,468.668 473.234,469.677 475.293,468.513C477.245,467.41 477.929,465.222 477.929,465.222C477.929,465.222 481.91,462.466 480.984,459.143C479.529,453.921 474.217,451.503 465.759,450.149C465.849,449.724 471.744,429.044 472.591,422.989C473.439,416.934 476.055,394.093 476.055,394.093L472.483,394.093C472.483,394.093 472.092,405.618 469.072,422.66C466.051,439.701 462.313,451.44 462.313,451.44C462.313,451.44 472.582,452.872 475.888,455.955C479.195,459.039 479.38,460.894 477.127,463.076C476.55,462.247 475.026,459.034 471.332,457.441C467.638,455.848 464.82,455.686 464.82,455.686C464.82,455.686 469.316,457.89 470.896,459.251C472.476,460.612 476.142,463.994 473.714,465.855C471.287,467.717 469.375,465.089 469.375,465.089C469.375,465.089 468.831,462.231 464.873,460.162C460.914,458.093 458.193,458.007 458.193,458.007C458.193,458.007 462.382,460.42 464.234,462.233C466.086,464.046 467.122,464.938 467.052,466.585C466.983,468.231 465.851,469.211 464.041,469.225C463.407,469.23 462.888,468.941 462.888,468.941C462.888,468.941 462.156,466.434 460.188,465.011C458.221,463.589 452.833,460.482 449.449,460.182Z" style="fill:rgb(114,79,67);"/>
                </g>
            </g>
            <g id="Meio-Corpo3" serif:id="Meio Corpo">
                <g id="Fralda3" serif:id="Fralda">
                    <path d="M471.661,423.598L485.267,411.257C485.267,411.257 486.411,408.58 482.885,402.396C479.358,396.211 476.966,393.995 476.966,393.995L474.433,395.971L471.661,423.598Z" style="fill:white;"/>
                    <path d="M475.358,394.292C475.182,394.24 475.078,394.174 475.079,394.093C475.081,393.923 475.132,393.966 475.358,394.292C476.221,394.549 478.796,394.462 478.846,394.093C478.905,393.649 484.649,400.036 486.278,408.808C486.09,408.769 483.743,411.296 483.743,411.296C483.743,411.296 483.082,406.721 481.095,402.588C479.686,405.52 476.784,410.797 473.663,413.69C473.045,414.263 473.698,411.296 473.698,411.296C473.698,411.296 477.374,406.699 479.197,399.455C479.153,399.399 479.109,399.344 479.065,399.289C476.752,396.41 475.767,394.885 475.358,394.292Z" style="fill:rgb(142,196,200);"/>
                </g>
                <g id="Perna3" serif:id="Perna">
                    <path d="M480.081,458.672C480.053,458.742 475.468,452.817 470.825,452.002C466.182,451.187 464.187,450.51 464.187,450.51L470.825,425.08C470.825,425.08 477.898,416.306 483.827,412.41C489.756,408.515 499.414,405.818 504.028,408.066C508.643,410.314 512.176,412.043 512.176,412.043L518.032,420.875L523.71,417.495L523.515,409.748L528.708,402.396L537.124,405.321L538.984,408.922L544.184,411.875L545.15,413.825L548.889,417.36L552.513,420.492L552.457,422.701L555.09,425.762C555.09,425.762 554.152,430.631 554.222,430.634C554.292,430.638 551.484,433.006 551.484,433.006L546.727,450.188C546.727,450.188 532.908,467.495 532.827,467.571C532.747,467.647 517.572,470.754 517.572,470.881C517.572,471.007 506.533,467.055 506.533,467.055L492.173,463.822C492.173,463.822 483.984,458.486 483.963,458.42C483.942,458.354 480.109,458.602 480.081,458.672Z" style="fill:rgb(251,189,168);"/>
                    <path d="M522.593,416.722C522.399,416.157 521.904,414.47 521.229,412.021C520.452,409.195 521.913,404.669 525.561,402.056C529.21,399.444 534.703,400.302 537.706,403.347C539.114,404.775 539.775,406.423 539.957,408.14C540.45,408.066 541.777,408.056 543.712,409.468C544.949,410.37 545.756,411.583 546.05,413.035C546.729,413.037 547.797,413.271 548.975,414.393C549.689,415.074 550.069,415.97 550.19,416.953C550.273,416.992 550.359,417.033 550.447,417.076C553.203,418.425 553.865,420.408 553.581,422.32C554.33,422.885 555.809,424.171 556.251,425.75C556.762,427.575 555.825,432.348 552.264,433.914C552.271,434.294 551.807,442.322 550.029,447.282C548.25,452.243 541.351,465.143 532.924,469.726C526.577,473.177 512.466,475.624 506.683,468.542C506.677,468.553 506.671,468.561 506.663,468.566C495.786,468.072 488.774,464.778 484.593,460.084C482.927,460.288 480.392,460.079 480.392,460.079C480.392,460.079 477.484,456.988 479.146,457.101C480.095,457.165 481.285,456.877 482.131,456.618C481.753,455.938 481.418,455.24 481.124,454.527C477.567,445.905 479.893,434.714 479.893,434.714C479.893,434.714 479.844,448.49 485.594,455.879C491.776,463.824 501.743,465.238 504.96,465.488C504.244,463.531 503.96,461.13 504.247,458.21C504.264,458.041 508.018,470.095 519.2,469.521C530.382,468.947 536.967,461.406 540.667,456.247C544.368,451.088 547.852,447.163 550.171,431.9C550.167,431.9 550.167,431.899 550.172,431.898L550.171,431.9C550.258,431.9 552.205,431.543 553.185,429.507C554.131,427.54 554.032,425.695 552.787,424.68C552.557,425.129 552.296,425.553 552.024,425.939C550.262,428.438 547.319,428.474 547.514,428.325C550.234,426.247 550.88,424.353 551.162,422.011C551.325,420.664 550.65,419.8 550.048,419.31C549.81,420.391 549.356,421.46 548.773,422.374C547.514,424.346 545.038,425.02 544.092,425.211C543.855,425.316 543.717,425.321 543.712,425.276C543.712,425.276 543.853,425.259 544.092,425.211C544.743,424.921 546.135,423.869 547.505,420.985C548.756,418.351 547.185,416.684 546.012,415.871C545.869,416.579 545.63,417.321 545.289,418.091C543.632,421.831 539.321,422.011 539.321,422.011C539.321,422.011 542.784,421.423 543.712,416.374C544.418,412.533 541.397,411.152 539.91,410.71C539.767,411.831 539.482,412.95 539.126,414.029C537.94,417.621 533.507,419.169 533.507,419.169C535.774,416.344 536.785,413.223 536.475,409.358C536.164,405.493 532.321,404.339 530.258,404.533C528.196,404.727 525.551,406.308 524.595,410.08C523.735,413.475 524.275,414.986 525.131,417.05C523.103,418.112 520.37,420.807 516.325,425.854C511.398,432.001 508.547,439.618 508.543,439.571C507.823,431.772 512.76,423.41 515.884,420.463C516.045,420.311 516.208,420.165 516.373,420.027C514.703,417.068 509.679,410.322 498.592,409.756C481.703,408.892 470.825,429.147 470.825,429.147C470.825,429.147 471.844,421.827 471.915,421.851C471.986,421.875 479.561,408.072 493.055,405.523C506.358,403.011 515.021,411.073 518.302,418.713C519.971,417.813 521.289,417.325 522.593,416.722ZM528.729,441.812C528.729,441.812 535.443,441.836 538.075,437.766C540.707,433.696 540.903,428.325 540.903,428.325C540.903,428.325 542.811,433.865 541.078,438.069C539.345,442.272 533.851,443.951 528.729,441.812Z" style="fill:rgb(114,79,67);"/>
                </g>
                <g id="Braço3" serif:id="Braço">
                    <path d="M474.285,394.093C474.383,394.136 472.28,419.283 468.846,431.894C465.413,444.504 463.822,450.958 463.876,450.946C463.931,450.934 474.977,453.407 476.847,455.913C478.716,458.419 480.907,460.498 479.839,462.999C478.77,465.5 475.849,465.366 475.849,465.366C475.849,465.366 476.667,466.857 473.664,467.431C470.661,468.006 468.748,466.928 468.748,466.928C468.748,466.928 469.718,469.513 467.048,470.543C464.378,471.573 461.249,470.416 461.249,470.416C461.249,470.416 462.258,472.264 459.184,473.299C456.11,474.334 454.824,474.527 449.162,469.992C443.5,465.457 443.216,463.998 440.584,464.379C437.952,464.761 437.897,465.462 435.238,466.292C432.578,467.121 427.035,467.453 426,463.79C424.965,460.128 425.821,458.128 429.006,457.353C432.191,456.578 433.87,457.589 434.796,455.186C435.723,452.782 438.535,448.295 438.535,448.295C438.535,448.295 438.835,427.793 439.112,419.007C439.39,410.221 442.088,396.448 442.088,396.448C442.088,396.448 474.187,394.051 474.285,394.093Z" style="fill:rgb(251,189,168);"/>
                    <path d="M449.449,460.182C449.449,460.182 460.628,466.104 458.821,470.476C457.014,474.848 452.567,470.159 449.742,468.178C446.917,466.197 443.547,463.268 440.718,463.373C437.89,463.478 437.066,464.535 434.052,465.234C431.039,465.933 427.739,465.564 427.126,462.979C426.641,460.934 427.346,459.41 432.034,457.769C435.194,456.663 435.951,455.554 437.252,452.904C438.553,450.253 439.704,448.69 439.732,448.66C439.76,448.629 440.165,428.023 440.82,419.896C441.476,411.769 443.517,396.722 444.305,395.005C444.179,394.897 440.946,395.649 440.946,395.649C440.946,395.649 438.445,409.894 437.932,415.524C437.42,421.155 436.682,446.976 436.682,446.976C436.682,446.976 434.511,451.376 433.423,453.102C432.335,454.828 430.603,455.482 429.006,455.87C427.41,456.258 423.262,459.135 424.068,462.94C424.916,466.939 427.807,468.477 431.599,467.931C435.39,467.385 438.294,465.538 439.732,465.753C442.359,466.148 446.917,469.744 449.76,472.124C452.602,474.505 456.886,476.241 459.672,474.827C461.606,473.845 462.25,471.92 462.25,471.92C462.25,471.92 466.02,472.967 467.816,471.61C469.613,470.253 470.146,468.668 470.146,468.668C470.146,468.668 473.234,469.677 475.293,468.513C477.245,467.41 477.929,465.222 477.929,465.222C477.929,465.222 481.91,462.466 480.984,459.143C479.529,453.921 474.217,451.503 465.759,450.149C465.849,449.724 471.744,429.044 472.591,422.989C473.439,416.934 476.055,394.093 476.055,394.093L472.483,394.093C472.483,394.093 472.092,405.618 469.072,422.66C466.051,439.701 462.313,451.44 462.313,451.44C462.313,451.44 472.582,452.872 475.888,455.955C479.195,459.039 479.38,460.894 477.127,463.076C476.55,462.247 475.026,459.034 471.332,457.441C467.638,455.848 464.82,455.686 464.82,455.686C464.82,455.686 469.316,457.89 470.896,459.251C472.476,460.612 476.142,463.994 473.714,465.855C471.287,467.717 469.375,465.089 469.375,465.089C469.375,465.089 468.831,462.231 464.873,460.162C460.914,458.093 458.193,458.007 458.193,458.007C458.193,458.007 462.382,460.42 464.234,462.233C466.086,464.046 467.122,464.938 467.052,466.585C466.983,468.231 465.851,469.211 464.041,469.225C463.407,469.23 462.888,468.941 462.888,468.941C462.888,468.941 462.156,466.434 460.188,465.011C458.221,463.589 452.833,460.482 449.449,460.182Z" style="fill:rgb(114,79,67);"/>
                </g>
            </g>
            <g id="Cabeça1" serif:id="Cabeça" transform="matrix(0.754911,0,0,0.754911,136.393,78.8992)">
                <g>
                    <path d="M263.519,280.53C262.702,277.74 259.914,267.621 248.38,266.298C234.984,264.76 224.556,279.468 221.513,300C218.469,320.532 222.78,344.504 238.221,349.598C243.943,351.486 248.324,350.315 251.457,348.374C256.644,379.684 283.327,414.732 371.04,428.928C397.33,433.183 417.177,432.814 434.8,431.242C468.139,428.267 489.579,418.229 500.95,399.608C503.686,402.95 517.655,404.544 527.49,399.124C539.705,392.391 547.468,376.074 551.259,363.677C555.05,351.281 556.959,333.594 549.71,324.128C543.132,315.538 527.716,314.523 520.141,323.776C524.936,302.996 529.586,292.905 533.979,277.833C543.165,246.323 568.067,161.727 429.868,135.917C301.507,111.945 276.718,185.219 271.094,218.516C266.738,244.31 267.26,263.017 263.519,280.53Z" style="fill:rgb(251,189,168);"/>
                    <g transform="matrix(1.99741,0.453771,-0.400571,1.76323,-273.99,-446.648)">
                        <path d="M426.741,300C435.645,300 442.873,311.13 442.873,324.838C442.873,338.546 435.645,349.676 426.741,349.676C409.446,349.676 410.609,338.546 410.609,324.838C410.609,311.13 417.838,300 426.741,300Z" style="fill:white;"/>
                    </g>
                    <g transform="matrix(1.02116,0.231986,-0.241093,1.06125,70.7946,-111.112)">
                        <ellipse cx="426.741" cy="324.838" rx="16.132" ry="24.838"/>
                    </g>
                    <g transform="matrix(0.827193,0.187921,-0.195299,0.859669,138.691,-26.8278)">
                        <ellipse cx="426.741" cy="324.838" rx="16.132" ry="24.838" style="fill:rgb(49,12,0);"/>
                    </g>
                    <g transform="matrix(0.615343,0.139793,-0.145282,0.639501,212.849,65.2291)">
                        <ellipse cx="426.741" cy="324.838" rx="16.132" ry="24.838"/>
                    </g>
                    <g transform="matrix(0.418785,0.0951394,-0.0750287,0.330262,285.429,171.879)">
                        <ellipse cx="426.741" cy="324.838" rx="16.132" ry="24.838" style="fill:white;"/>
                    </g>
                    <g transform="matrix(0.152042,0.0345408,-0.0258411,0.113748,370.185,273.869)">
                        <ellipse cx="426.741" cy="324.838" rx="16.132" ry="24.838" style="fill:white;"/>
                    </g>
                    <g transform="matrix(-5.55112e-17,1.04718,-1.08829,2.77556e-17,825.511,-78.3184)">
                        <ellipse cx="426.741" cy="324.838" rx="16.132" ry="24.838" style="fill:rgb(255,208,192);"/>
                    </g>
                    <g transform="matrix(-2.03317,-0.248527,-0.21939,1.7948,1269.97,-177.903)">
                        <path d="M426.741,300C435.645,300 442.873,311.13 442.873,324.838C442.873,338.546 435.645,349.676 426.741,349.676C409.446,349.676 410.609,338.546 410.609,324.838C410.609,311.13 417.838,300 426.741,300Z" style="fill:white;"/>
                    </g>
                    <g transform="matrix(-1.03944,-0.127057,-0.132045,1.08025,832.016,21.2474)">
                        <ellipse cx="426.741" cy="324.838" rx="16.132" ry="24.838"/>
                    </g>
                    <g transform="matrix(-0.865575,-0.105804,-0.109958,0.899557,750.646,70.8732)">
                        <ellipse cx="426.741" cy="324.838" rx="16.132" ry="24.838" style="fill:rgb(49,12,0);"/>
                    </g>
                    <g transform="matrix(-0.590987,-0.0722399,-0.075076,0.614189,622.137,149.248)">
                        <ellipse cx="426.741" cy="324.838" rx="16.132" ry="24.838"/>
                    </g>
                    <g transform="matrix(0.476871,-0.932294,0.968896,0.495593,-227.32,572.318)">
                        <ellipse cx="426.741" cy="324.838" rx="16.132" ry="24.838" style="fill:rgb(255,208,192);"/>
                    </g>
                    <path d="M516.101,355.438C516.101,355.395 516.097,355.351 516.089,355.307C516.087,355.297 516.083,355.286 516.077,355.275C515.977,354.798 515.647,354.731 515.3,354.835C514.795,354.698 514.245,354.779 514.308,355.6C514.316,355.703 514.334,355.921 514.35,356.244C514.406,357.342 514.459,359.64 514.218,362.769C513.276,374.995 507.878,399.986 480.655,415.355C466.392,423.408 446.155,428.658 417.497,428.355C404.712,428.219 390.257,427.029 373.908,424.385C356.518,421.821 341.537,418.31 328.592,414.255C299.749,405.22 281.137,393.112 269.411,380.024C239.446,346.581 254.022,308.054 254.021,307.992C254.021,307.495 253.617,307.092 253.12,307.092C252.623,307.092 252.219,307.495 252.219,307.992C252.218,308.056 236.55,347.249 266.455,382.597C278.231,396.515 297.009,409.999 326.735,419.978C339.875,424.388 355.182,428.023 372.922,430.835C389.663,433.251 404.447,434.302 417.504,434.128C447.22,433.733 467.992,427.349 482.534,418.574C510.437,401.736 515.444,375.659 516.137,362.895C516.313,359.654 516.217,357.279 516.149,356.144C516.129,355.803 516.113,355.572 516.104,355.463L516.101,355.438Z" style="fill:rgb(114,79,67);"/>
                    <path d="M264.765,281.362C264.765,281.362 266.853,268.486 269.167,252.656C269.577,249.856 269.979,246.963 270.363,244.031C271.247,237.278 272.054,230.325 272.861,223.873C274.89,207.442 280.715,164.049 326.896,144.493C349.534,134.907 381.739,130.999 427.751,138.519C469.737,145.198 496.454,158.72 513.273,174.481C551.548,210.346 538.006,257.74 537.48,259.518C537.17,260.413 530.485,279.668 525.391,297.517C523.735,303.318 522.293,308.969 521.242,313.786C520.657,316.461 520.34,318.882 519.931,320.9C519.734,321.874 519.496,322.743 519.335,323.521C519.227,324.042 519.562,324.552 520.082,324.661C520.603,324.769 521.114,324.434 521.222,323.914C521.381,323.156 521.541,322.29 521.809,321.358C522.139,320.207 522.619,318.972 523.106,317.609C523.487,316.543 523.917,315.434 524.335,314.248C525.753,310.223 527.4,305.595 529.044,300.738C535.278,282.324 542.24,261.121 542.24,261.121C542.247,261.102 542.253,261.082 542.259,261.063C542.259,261.063 558.635,209.398 517.336,170.174C499.98,153.69 472.327,139.401 428.756,132.287C381.182,124.727 347.908,129.033 324.592,139.109C275.984,160.116 270.075,205.941 268.112,223.311C267.392,229.777 266.573,236.732 265.885,243.51C265.586,246.454 265.316,249.362 265.075,252.183C263.715,268.125 262.85,281.144 262.85,281.144C262.79,281.672 263.17,282.15 263.698,282.21C264.227,282.271 264.705,281.891 264.765,281.362Z" style="fill:rgb(114,79,67);"/>
                    <path d="M500.508,400.617C500.508,400.617 505.997,403.939 513.716,404.728C519.69,405.34 526.942,404.401 534.019,399.445C538.756,396.127 543.403,390.966 547.449,383.176C549.35,379.515 551.074,375.246 552.646,370.317C554.15,365.314 555.283,360.736 555.967,356.532C557.401,347.719 557.183,340.587 556.066,334.934C553.673,322.825 547.114,317.184 541.636,315.479C538.004,314.372 533.442,315.022 529.296,316.707C525.068,318.425 521.294,321.103 519.485,323.575C519.168,323.971 519.232,324.55 519.629,324.867C520.025,325.184 520.604,325.12 520.921,324.724C522.731,322.652 526.339,320.592 530.251,319.371C533.749,318.278 537.507,317.88 540.398,319.023C544.761,320.717 549.413,325.848 550.807,335.82C551.533,341.018 551.29,347.468 549.817,355.465C549.086,359.435 548.111,363.791 546.696,368.536C545.4,373.166 543.906,377.173 542.302,380.656C539.041,387.737 535.281,392.583 531.286,395.812C517.43,407.015 501.391,399.005 501.391,399.005C500.946,398.761 500.387,398.925 500.143,399.37C499.9,399.814 500.063,400.374 500.508,400.617Z" style="fill:rgb(114,79,67);"/>
                    <path d="M480.825,328.445C480.832,328.434 480.838,328.421 480.842,328.406C480.873,328.31 480.933,328.111 481.029,327.816C481.29,327.024 481.858,325.631 482.315,323.647C482.445,323.08 482.523,322.463 482.63,321.813C483.343,317.461 484.033,311.495 483.506,305.156C483.29,302.56 482.857,299.916 482.148,297.313C481.847,296.205 481.487,295.107 481.057,294.033C479.853,291.027 478.229,288.147 476.088,285.599C471.777,280.47 465.585,276.002 456.637,275.202C455.489,275.099 454.362,275.185 453.134,275.254C453.048,275.242 452.968,275.302 452.955,275.389C452.943,275.475 453.004,275.555 453.09,275.567C454.181,275.952 455.128,276.419 456.151,276.785C456.835,277.029 457.527,277.188 458.186,277.415C463.406,279.212 467.275,281.986 470.26,285.223C471.663,286.744 472.828,288.385 473.853,290.091C474.839,291.734 475.649,293.451 476.364,295.197C476.851,296.386 477.296,297.585 477.697,298.793C478.751,301.965 479.486,305.182 479.952,308.302C480.909,314.707 480.75,320.582 480.634,324.318C480.578,326.11 480.6,327.377 480.554,327.999C480.54,328.183 480.525,328.305 480.518,328.365C480.492,328.589 480.813,328.504 480.816,328.495C480.822,328.478 480.825,328.461 480.825,328.445Z"/>
                    <g transform="matrix(-0.978317,-0.207113,-0.207113,0.978317,836.283,78.9444)">
                        <path d="M480.825,328.445C480.825,328.461 480.822,328.478 480.816,328.495C480.813,328.504 480.492,328.589 480.518,328.365C480.525,328.305 480.54,328.183 480.554,327.999C480.6,327.377 480.578,326.11 480.634,324.318C480.75,320.582 480.909,314.707 479.952,308.302C479.486,305.182 478.751,301.965 477.697,298.793C477.296,297.585 476.851,296.386 476.364,295.197C475.649,293.451 474.839,291.734 473.853,290.091C472.828,288.385 471.663,286.744 470.26,285.223C467.275,281.986 463.406,279.211 458.186,277.415C457.527,277.188 456.835,277.029 456.151,276.785C455.128,276.419 454.181,275.952 453.09,275.567C453.004,275.555 452.943,275.475 452.955,275.389C452.968,275.302 453.048,275.242 453.134,275.254C454.362,275.185 455.489,275.099 456.638,275.202C465.585,276.002 471.777,280.47 476.088,285.599C478.229,288.147 479.853,291.027 481.057,294.033C481.487,295.107 481.847,296.205 482.148,297.313C482.857,299.915 483.29,302.56 483.506,305.156C484.033,311.495 483.343,317.461 482.63,321.812C482.523,322.463 482.445,323.08 482.315,323.647C481.858,325.631 481.29,327.024 481.029,327.816C480.933,328.111 480.873,328.31 480.842,328.406C480.838,328.421 480.832,328.434 480.825,328.445Z"/>
                    </g>
                    <path d="M250.486,347.694C250.486,347.694 238.35,351.466 230.442,341.392C227.769,337.987 225.675,333.004 224.517,325.801C223.748,321.025 223.389,315.301 223.664,308.421C223.781,301.543 224.694,295.66 226.003,290.653C228.895,279.59 234.17,272.96 240.255,270.291C249.149,266.39 259.047,270.918 262.932,281.521C263.086,282.004 263.603,282.272 264.086,282.118C264.57,281.964 264.837,281.446 264.684,280.963C261.169,268.027 249.451,262.225 238.588,266.085C231.164,268.723 223.873,275.998 220.073,289.012C218.497,294.411 217.652,300.846 217.534,308.321C217.587,315.666 218.202,321.761 219.329,326.798C221.141,334.898 224.094,340.338 227.438,343.953C237.491,354.821 251.103,349.426 251.103,349.426C251.581,349.255 251.831,348.729 251.661,348.251C251.49,347.773 250.964,347.524 250.486,347.694Z" style="fill:rgb(114,79,67);"/>
                    <g transform="matrix(1,0,0,1,-1,0)">
                        <path d="M374.86,353.927C374.86,353.927 368.515,351.968 369.313,345.949C369.96,341.071 377.612,338.939 384.82,339.802C392.028,340.665 399.27,345.262 398.742,349.564C398.214,353.867 396.194,356.288 391.222,356.823C391.149,356.809 395.249,354.444 395,351.405C394.686,347.585 391.524,345.441 384.403,344.627C376.43,343.716 372.985,345.637 372.606,348.302C372.227,350.968 374.86,353.927 374.86,353.927Z" style="fill:rgb(114,79,67);"/>
                    </g>
                    <g transform="matrix(1,0,0,1,-1,0)">
                        <path d="M366.352,360.545C364.979,364.765 364.242,365.971 361.977,367.667C359.507,369.518 359.771,368.945 356.131,370.193C356.066,370.215 360.693,372.381 363.572,370.672C363.73,370.807 367.853,375.148 367.853,375.148C367.853,375.148 367.1,378.993 366.156,384.162C365.417,388.21 362.15,395.592 364.327,402.734C365.256,405.782 370.025,410.098 375.889,410.331C385.321,410.705 388.685,405.949 390.599,402.312C392.513,398.675 393.767,394.081 395,386.864C396.233,379.646 397.518,375.862 397.518,375.862L400,375.425C400,375.425 402.654,378.975 406.365,378.055C406.774,377.706 403.187,376.356 402.227,372.295C401.268,368.234 401.512,366.016 401.512,366.016C401.512,366.016 399.126,369.357 398.769,371.95C398.569,371.873 398.485,372.835 395,370.431C391.515,368.028 384.792,364.278 380.485,364.007C376.177,363.736 370.845,364.141 367.205,367C367.454,366.805 366.35,360.494 366.352,360.545ZM392.644,377.968C392.66,377.917 395,377.62 395,377.62C395,377.62 391.611,390.166 389.662,396.561C388.391,400.734 384.313,406.337 376.43,406.297C368.547,406.257 367.382,400.572 367.295,395.897C367.208,391.222 370.265,376.697 370.265,376.697L372,377.611C372,377.611 370.906,391.07 371.438,393.933C371.97,396.796 373.949,399.914 377.128,400.147C380.306,400.38 383.75,399.365 385.9,394.776C388.049,390.187 391.593,381.328 392.644,377.968ZM365.278,368.966C365.213,368.89 373.862,367.091 379.046,367.227C384.23,367.362 396.107,374.248 396.107,374.248C396.107,374.248 393.261,376.206 385.415,376.52C370.553,377.115 366.285,370.159 365.278,368.966Z" style="fill:rgb(114,79,67);"/>
                    </g>
                    <g transform="matrix(0.418785,0.0951394,-0.0750287,0.330262,200.969,155.63)">
                        <ellipse cx="426.741" cy="324.838" rx="16.132" ry="24.838" style="fill:white;"/>
                    </g>
                    <g transform="matrix(0.152042,0.0345408,-0.0258411,0.113748,285.016,259.725)">
                        <ellipse cx="426.741" cy="324.838" rx="16.132" ry="24.838" style="fill:white;"/>
                    </g>
                    <g transform="matrix(0.999748,0.022451,-0.022451,0.999748,5.58884,-9.83797)">
                        <path d="M492.504,278.502C481.071,265.824 470.804,257.629 456.753,251.888C456.753,251.888 458.607,242.169 458.749,242.22C475.743,248.281 491.303,269 492.504,278.502Z"/>
                    </g>
                    <g transform="matrix(-0.943787,-0.330555,-0.330555,0.943787,861.929,148.206)">
                        <path d="M492.504,278.502C481.071,265.824 470.804,257.629 456.753,251.888C456.753,251.888 458.607,242.169 458.749,242.22C475.743,248.281 491.303,269 492.504,278.502Z"/>
                    </g>
                </g>
            </g>
        </g>
    </g>
</svg>
