<svg viewBox="0 -65 512 512" xmlns="http://www.w3.org/2000/svg"><path d="m354.050781 374.597656h-196.101562c-69.25 0-125.390625-56.140625-125.390625-125.394531v-195.625c0-25.445313 20.628906-46.078125 46.078125-46.078125h354.726562c25.449219 0 46.078125 20.632812 46.078125 46.078125v195.625c0 69.253906-56.140625 125.394531-125.390625 125.394531zm0 0" fill="#ccf8ff"/><path d="m78.636719 7.5c-25.449219 0-46.078125 20.632812-46.078125 46.078125v195.625c0 69.253906 56.136718 125.394531 125.390625 125.394531h107.324219c-8.601563-53.75-29.515626-127.210937-80.386719-166.640625-58.816407-45.59375-52.542969-153.613281-46.636719-200.457031zm0 0" fill="#9ff6ff"/><path d="m32.558594 191.746094v57.457031c0 69.253906 56.136718 125.394531 125.390625 125.394531h31.632812c.636719-35.652344-6.824219-171.964844-157.023437-182.851562zm0 0" fill="#6ed9ff"/><path d="m479.441406 191.746094v57.457031c0 69.253906-56.136718 125.394531-125.390625 125.394531h-31.632812c-.636719-35.652344 6.824219-171.964844 157.023437-182.851562zm0 0" fill="#7de7ff"/><path d="m160.25 161.597656h-125.492188c-15.054687 0-27.257812-12.203125-27.257812-27.253906v-45.054688c0-15.054687 12.203125-27.257812 27.257812-27.257812h125.492188c13.722656 0 24.84375 11.125 24.84375 24.847656v49.875c0 13.71875-11.121094 24.84375-24.84375 24.84375zm0 0" fill="#7de7ff"/><path d="m150.9375 161.597656c-12.9375-30.863281-16.5-67.613281-16.332031-99.566406h-99.847657c-15.054687 0-27.257812 12.203125-27.257812 27.257812v45.054688c0 15.050781 12.203125 27.253906 27.257812 27.253906zm0 0" fill="#6ed9ff"/><path d="m479.65625 161.597656h-125.496094c-15.050781 0-27.253906-12.203125-27.253906-27.253906v-45.054688c0-15.054687 12.203125-27.257812 27.253906-27.257812h125.496094c13.71875 0 24.84375 11.125 24.84375 24.847656v49.875c0 13.71875-11.125 24.84375-24.84375 24.84375zm0 0" fill="#7de7ff"/><path d="m192.816406 134.027344h-51.3125c-12.785156 0-23.242187-10.460938-23.242187-23.246094s10.457031-23.242188 23.242187-23.242188h51.3125c12.785156 0 23.246094 10.457032 23.246094 23.242188s-10.460938 23.246094-23.246094 23.246094zm0 0" fill="#ffc2e1"/><path d="m370.496094 134.027344h-51.3125c-12.785156 0-23.246094-10.460938-23.246094-23.246094s10.460938-23.242188 23.246094-23.242188h51.3125c12.785156 0 23.242187 10.457032 23.242187 23.242188.003907 12.785156-10.457031 23.246094-23.242187 23.246094zm0 0" fill="#ffc2e1"/><path d="m336.65625 225.367188c4.144531 0 7.5-3.355469 7.5-7.5v-12.449219c0-4.140625-3.355469-7.5-7.5-7.5-4.140625 0-7.5 3.359375-7.5 7.5v12.449219c0 4.144531 3.359375 7.5 7.5 7.5zm0 0"/><path d="m175.34375 197.917969c-4.144531 0-7.5 3.359375-7.5 7.5v12.449219c0 4.144531 3.355469 7.5 7.5 7.5 4.140625 0 7.5-3.355469 7.5-7.5v-12.449219c0-4.140625-3.359375-7.5-7.5-7.5zm0 0"/><path d="m274.320312 211.945312c-10.789062 8.367188-25.855468 8.367188-36.640624 0-3.273438-2.539062-7.984376-1.945312-10.523438 1.328126-2.539062 3.273437-1.945312 7.984374 1.328125 10.523437 8.101563 6.285156 17.808594 9.425781 27.515625 9.425781s19.414062-3.140625 27.511719-9.425781c3.273437-2.539063 3.871093-7.25 1.332031-10.523437-2.539062-3.273438-7.25-3.867188-10.523438-1.328126zm0 0"/><path d="m486.941406 55.367188s-1.820312-55.367188-53.578125-55.367188h-354.726562c-53.984375 0-53.578125 55.917969-53.578125 55.917969-14.457032 4.210937-25.058594 17.570312-25.058594 33.371093v45.054688c0 15.796875 10.601562 29.15625 25.058594 33.367188v81.492187c0 73.277344 59.613281 132.894531 132.890625 132.894531h196.101562c73.277344 0 132.894531-59.617187 132.894531-132.894531v-80.941406c14.332032-3.316407 25.054688-16.179688 25.054688-31.507813v-49.875c0-15.332031-10.722656-28.195312-25.058594-31.511718zm-446.882812 193.835937v-49.238281c56.910156 6.089844 97.574218 32.078125 120.910156 77.355468 17.414062 33.792969 20.738281 70.226563 21.105469 89.777344h-24.125c-65.003907 0-117.890625-52.886718-117.890625-117.894531zm313.992187 117.894531h-24.121093c.183593-9.820312 1.109374-24.234375 4.304687-40.382812.804687-4.0625-1.839844-8.007813-5.902344-8.8125-4.070312-.804688-8.011719 1.839844-8.8125 5.902344-3.347656 16.941406-4.417969 32.011718-4.601562 43.292968h-117.84375c-.375-20.863281-3.917969-60.0625-22.773438-96.648437-12.121093-23.515625-28.785156-42.609375-49.527343-56.75-23.210938-15.820313-51.683594-25.5-84.714844-28.828125v-15.773438h120.191406c16.214844 0 29.675781-11.992187 31.988281-27.570312 0 0 31.324219 1.699218 31.324219-30.746094s-31.703125-30.746094-31.703125-30.746094c-3.148437-14.558594-16.121094-25.503906-31.609375-25.503906h-37.5625c-4.144531 0-7.5 3.359375-7.5 7.5s3.355469 7.5 7.5 7.5h37.5625c7.136719 0 13.273438 4.332031 15.933594 10.503906h-34.679688c-16.953125 0-30.746094 13.792969-30.746094 30.746094s13.792969 30.746094 30.746094 30.746094h35.40625c-2.078125 7.246094-8.753906 12.570312-16.660156 12.570312h-125.492188c-10.894531 0-19.757812-8.863281-19.757812-19.753906v-45.054688c0-10.894531 8.863281-19.757812 19.757812-19.757812h57.113282c4.144531 0 7.5-3.355469 7.5-7.5 0-4.140625-3.355469-7.5-7.5-7.5h-51.8125s-.28125-39.53125 38.578125-39.53125h354.726562c38.191407 0 38.578125 39.53125 38.578125 39.53125h-117.78125c-15.960937 0-29.433594 10.820312-33.496094 25.507812 0 0-32.226562-.640624-32.226562 30.742188s31.71875 30.746094 31.71875 30.746094c3.320312 15.730468 17.304688 27.570312 34.003906 27.570312h117.78125v15.78125c-89.164062 8.972656-127.160156 62.417969-143.328125 106.296875-1.433593 3.886719.546875 8.222657 4.441407 9.628907 5.308593 1.917968 8.515624-1.410157 9.632812-4.441407 9.574219-25.992187 24.140625-47.179687 43.285156-62.984375 22.382813-18.472656 51.28125-29.691406 85.96875-33.414062v49.238281c0 65.007813-52.886718 117.894531-117.890625 117.894531zm-161.234375-272.0625c8.683594 0 15.746094 7.066406 15.746094 15.746094 0 8.683594-7.0625 15.746094-15.746094 15.746094h-51.3125c-8.683594 0-15.746094-7.0625-15.746094-15.746094 0-8.679688 7.0625-15.746094 15.746094-15.746094zm126.367188 31.492188c-8.683594 0-15.746094-7.0625-15.746094-15.746094 0-8.679688 7.0625-15.746094 15.746094-15.746094h51.3125c8.683594 0 15.746094 7.066406 15.746094 15.746094 0 8.683594-7.066407 15.746094-15.746094 15.746094zm177.816406 10.226562c0 9.5625-7.78125 17.34375-17.34375 17.34375h-125.496094c-8.355468 0-15.5-5.222656-18.382812-12.570312h34.71875c16.953125 0 30.746094-13.792969 30.746094-30.746094s-13.792969-30.746094-30.746094-30.746094h-33.777344c3.320312-6.242187 9.890625-10.503906 17.441406-10.503906h125.496094c9.5625 0 17.34375 7.78125 17.34375 17.34375zm0 0"/></svg>