<svg id="Capa_1" enable-background="new 0 0 512 512" height="512" viewBox="0 0 512 512" width="512" xmlns="http://www.w3.org/2000/svg"><g><g><g><path d="m458.297 256c0-38.561-10.716-75.475-30.74-107.341-8.035-12.788-24.44-20.132-35.383-31.075-10.942-10.942-16.047-25.107-28.834-33.142-31.865-20.023-68.779-30.739-107.34-30.739s-75.475 10.716-107.34 30.739c-12.788 8.035-20.132 25.004-31.075 35.946-10.942 10.942-25.107 15.483-33.142 28.271-20.024 31.866-30.74 68.78-30.74 107.341s10.716 75.475 30.739 107.34c8.035 12.788 22.2 17.329 33.142 28.271s18.287 27.911 31.075 35.946c31.866 20.023 68.78 30.74 107.341 30.74s75.474-10.716 107.34-30.74c12.788-8.035 21.676-19.762 32.619-30.704 10.942-10.942 23.563-20.725 31.599-33.513 20.023-31.865 30.739-68.779 30.739-107.34zm-300.844 97.355c-7.751-7.751-8.614-20.755-14.021-29.742-24.952-41.47-24.952-93.756 0-135.227 5.407-8.987 7.354-20.133 15.105-27.884s20.862-11.663 29.849-17.071c41.47-24.952 93.756-24.952 135.227 0 8.987 5.407 25.45.068 33.201 7.819s6.346 28.149 11.754 37.136c24.952 41.47 24.952 93.756 0 135.227-5.407 8.987-7.261 24.949-15.012 32.7s-20.955 6.847-29.942 12.254c-40.997 24.667-92.563 24.949-133.801.845-9.517-5.561-24.2-7.897-32.36-16.057z" fill="#f58a97"/><g fill="#f07281"><path d="m241 125.579c-38.404-4.391-78.374 8.134-107.83 37.59-51.269 51.269-51.269 134.392 0 185.661 29.456 29.456 69.427 41.982 107.83 37.59-18.333-2.096-36.308-8.047-52.612-17.854-8.987-5.406-18.547-9.318-26.298-17.069s-13.25-18.897-18.658-27.884c-24.952-41.47-24.952-93.756 0-135.227 5.407-8.987 7.354-20.133 15.105-27.884s20.863-11.663 29.85-17.069c16.305-9.807 34.28-15.757 52.613-17.854z"/><path d="m395.796 117.585c-10.942-10.942-19.667-25.107-32.455-33.142-31.866-20.024-68.78-30.74-107.341-30.74-5.031 0-10.033.184-15 .545 48.385 3.523 93.394 24.054 128.045 58.706 38.209 38.209 59.251 89.01 59.251 143.046 0 54.035-21.043 104.836-59.251 143.045-34.652 34.652-79.66 55.183-128.045 58.706 4.967.362 9.969.545 15 .545 38.561 0 75.474-10.716 107.34-30.74 12.788-8.035 21.676-19.762 32.619-30.704 10.942-10.942 23.563-20.725 31.599-33.513 20.023-31.866 30.739-68.779 30.739-107.34s-10.716-75.475-30.739-107.341c-8.036-12.786-20.82-20.131-31.762-31.073z"/></g><path d="m363.336 84.45-39.727 58.99c8.988 5.408 17.47 11.979 25.222 19.73 7.751 7.751 14.322 16.234 19.73 25.222l58.99-39.727c-8.036-12.788-17.563-24.767-28.505-35.71-10.943-10.943-22.922-20.47-35.71-28.505z" fill="#eaf6ff"/><path d="m393.914 108.016c-7.932-7.38-20.102-16.992-30.576-23.566-.001 0-.001-.001-.002-.001l-9.78 14.522c5.359 4.37 10.534 9.027 15.49 13.983 15.011 15.011 27.359 31.972 36.836 50.303l21.669-14.593v-.001c-9.811-15.468-18.663-26.715-33.637-40.647z" fill="#d8ecfe"/><path d="m148.664 427.55 39.727-58.99c-8.987-5.407-17.47-11.979-25.222-19.73s-14.322-16.234-19.73-25.222l-58.99 39.727c8.036 12.788 17.563 24.767 28.505 35.71 10.943 10.943 22.922 20.47 35.71 28.505z" fill="#eaf6ff"/><path d="m159.767 345.285c-4.187-4.594-11.811-14.103-16.327-21.676l-20.455 13.776c3.137 3.961 6.526 7.787 10.185 11.446 14.027 14.027 30.44 24.206 47.931 30.555l7.291-10.826c-.722-.434-1.435-.888-2.15-1.338-1.412-.859-14.943-9.284-26.475-21.937z" fill="#d8ecfe"/><path d="m158.537 160.503c7.751-7.751 20.867-11.656 29.854-17.063l-39.727-58.99c-12.788 8.035-24.767 17.563-35.71 28.505s-20.469 22.921-28.505 35.71l58.99 39.727c5.408-8.988 7.347-20.138 15.098-27.889z" fill="#eaf6ff"/><path d="m181.101 132.614c-17.491 6.35-33.904 16.529-47.931 30.555-3.659 3.659-7.048 7.486-10.185 11.446l20.455 13.776c10.619-17.559 24.768-32.778 44.952-44.952z" fill="#d8ecfe"/><path d="m348.83 348.83c-7.751 7.751-16.234 14.322-25.222 19.73l39.727 58.99c12.788-8.036 24.767-17.563 35.709-28.505s20.469-22.921 28.505-35.709l-58.99-39.727c-5.406 8.987-11.977 17.47-19.729 25.221z" fill="#eaf6ff"/><path d="m403.984 393.913c7.843-8.311 16.517-19.351 23.565-30.575 0-.001.001-.001.001-.002l-21.669-14.593c-9.477 18.331-21.825 35.292-36.836 50.303-4.956 4.956-10.13 9.613-15.49 13.983l9.78 14.522s.001-.001.002-.001c15.529-9.862 26.573-18.724 40.647-33.637z" fill="#d8ecfe"/></g></g><path d="m405.767 106.927c-4.955-26.223-19.812-50.8-42.241-69.68-3.171-2.667-7.901-2.261-10.568.908s-2.261 7.9.908 10.568c14.192 11.946 24.926 26.4 31.454 42.046-36.764-28.892-81.836-44.566-129.32-44.566-46.81 0-91.272 15.237-127.744 43.347 18.85-43.794 69.756-74.55 128.304-74.55 24.47 0 48.465 5.411 69.391 15.646 3.724 1.82 8.213.278 10.033-3.442 1.82-3.721.279-8.212-3.441-10.033-22.967-11.233-49.241-17.171-75.983-17.171-74.254 0-137.547 45.598-149.168 106.709-61.501 11.269-107.392 74.616-107.392 149.291s45.891 138.022 107.392 149.291c11.621 61.111 74.914 106.709 149.168 106.709 74.627 0 137.705-45.613 149.203-106.926 60.92-11.846 106.237-74.867 106.237-149.074 0-74.206-45.316-137.226-106.233-149.073zm-12.025 11.331c8.788 8.788 16.622 18.275 23.473 28.325l-46.473 31.297c-4.854-7.098-10.396-13.801-16.609-20.014-6.256-6.256-12.97-11.779-20.028-16.588l31.312-46.494c10.05 6.852 19.537 14.685 28.325 23.474zm-225.269 225.269c-19.311-19.311-31.523-43.825-35.158-71.039-.548-4.105-4.32-6.988-8.427-6.441-4.105.549-6.989 4.322-6.441 8.427 2.22 16.616 7.322 32.373 15.026 46.804l-46.658 31.422c-16.706-29.12-25.61-62.225-25.61-96.702s8.904-67.582 25.61-96.702l46.662 31.425c-7.624 14.282-12.703 29.863-14.96 46.288-.564 4.104 2.306 7.887 6.409 8.451 4.111.568 7.888-2.306 8.451-6.409 3.726-27.137 15.845-51.329 35.097-70.58 24.131-24.131 55.83-36.196 87.527-36.196 31.698 0 63.396 12.065 87.526 36.196 23.24 23.24 36.256 53.792 36.256 87.527 0 33.14-13.03 64.302-36.256 87.527-23.916 23.915-55.264 35.98-86.678 36.193-31.981.22-64.03-11.844-88.376-36.191zm152.781 34.964 31.448 46.695c-29.12 16.706-62.225 25.61-96.701 25.61-34.477 0-67.582-8.904-96.702-25.61l31.447-46.695c20.324 10.812 42.788 16.226 65.255 16.226s44.93-5.413 65.253-16.226zm73.528-122.491c0-23.149-5.63-45.432-16.241-65.288l46.646-31.414c16.706 29.12 25.611 62.225 25.611 96.702 0 34.476-8.905 67.581-25.611 96.701l-46.646-31.414c10.611-19.854 16.241-42.138 16.241-65.287zm-138.782-194.797c34.477 0 67.582 8.904 96.702 25.61l-31.448 46.695c-20.323-10.812-42.789-16.218-65.254-16.218-22.466 0-44.931 5.406-65.255 16.219l-31.447-46.695c29.12-16.707 62.225-25.611 96.702-25.611zm-137.742 57.055c8.788-8.788 18.275-16.622 28.324-23.473l31.311 46.493c-7.058 4.809-13.772 10.332-20.027 16.588-6.214 6.214-11.743 12.92-16.6 20.019l-46.482-31.304c6.852-10.048 14.685-19.535 23.474-28.323zm-103.258 137.742c0-58.953 31.032-109.995 75.194-128.589-28.526 36.629-43.991 81.419-43.991 128.589s15.465 91.961 43.99 128.589c-44.161-18.594-75.193-69.636-75.193-128.589zm79.785 109.418 46.481-31.303c4.856 7.098 10.385 13.803 16.6 20.019 6.256 6.256 12.969 11.779 20.027 16.588l-31.312 46.494c-20.088-13.682-38.115-31.708-51.796-51.798zm161.775 131.582c-58.548 0-109.454-30.756-128.304-74.55 36.472 28.11 80.935 43.347 127.745 43.347 47.536 0 92.654-15.71 129.44-44.662-18.329 44.544-69.514 75.865-128.881 75.865zm108.858-79.785-31.312-46.494c7.058-4.809 13.772-10.332 20.028-16.588 6.212-6.213 11.755-12.916 16.609-20.013l46.473 31.297c-13.678 20.082-31.724 38.127-51.798 51.798zm56.389-32.627c28.525-36.629 43.99-81.419 43.99-128.588s-15.464-91.96-43.99-128.589c44.161 18.595 75.193 69.636 75.193 128.589s-31.032 109.994-75.193 128.588z"/></g></svg>